<mxfile host="app.diagrams.net" modified="2023-06-01T08:42:16.294Z" agent="Mozilla/5.0 (Windows NT 10.0; Win64; x64) AppleWebKit/537.36 (KHTML, like Gecko) Chrome/114.0.0.0 Safari/537.36" etag="nafVtSpaa0gIy5Jv9qTE" version="21.3.6" type="device" pages="10">
  <diagram name="Страница 1" id="3LGxetaVajUEgg9hcDvq">
    <mxGraphModel dx="1434" dy="806" grid="1" gridSize="10" guides="1" tooltips="1" connect="1" arrows="1" fold="1" page="1" pageScale="1" pageWidth="827" pageHeight="1169" math="0" shadow="0">
      <root>
        <mxCell id="0" />
        <mxCell id="1" parent="0" />
        <mxCell id="lEdAFeIuMoSX6aFnRs92-11" value="" style="edgeStyle=orthogonalEdgeStyle;rounded=0;orthogonalLoop=1;jettySize=auto;html=1;endArrow=open;endFill=0;" parent="1" source="lEdAFeIuMoSX6aFnRs92-1" target="lEdAFeIuMoSX6aFnRs92-4" edge="1">
          <mxGeometry relative="1" as="geometry" />
        </mxCell>
        <mxCell id="lEdAFeIuMoSX6aFnRs92-1" value="&lt;font face=&quot;Times New Roman&quot; style=&quot;font-size: 15px;&quot;&gt;Вход в программу&lt;/font&gt;" style="rounded=1;whiteSpace=wrap;html=1;arcSize=50;" parent="1" vertex="1">
          <mxGeometry x="360" y="40" width="120" height="60" as="geometry" />
        </mxCell>
        <mxCell id="lEdAFeIuMoSX6aFnRs92-3" value="&lt;font face=&quot;Times New Roman&quot; style=&quot;font-size: 15px;&quot;&gt;Выход из программы&lt;/font&gt;" style="rounded=1;whiteSpace=wrap;html=1;arcSize=50;" parent="1" vertex="1">
          <mxGeometry x="360" y="430" width="120" height="60" as="geometry" />
        </mxCell>
        <mxCell id="lEdAFeIuMoSX6aFnRs92-12" value="" style="edgeStyle=orthogonalEdgeStyle;rounded=0;orthogonalLoop=1;jettySize=auto;html=1;endArrow=open;endFill=0;" parent="1" source="lEdAFeIuMoSX6aFnRs92-4" target="lEdAFeIuMoSX6aFnRs92-5" edge="1">
          <mxGeometry relative="1" as="geometry" />
        </mxCell>
        <mxCell id="lEdAFeIuMoSX6aFnRs92-15" style="edgeStyle=orthogonalEdgeStyle;rounded=0;orthogonalLoop=1;jettySize=auto;html=1;endArrow=open;endFill=0;" parent="1" source="lEdAFeIuMoSX6aFnRs92-4" edge="1">
          <mxGeometry relative="1" as="geometry">
            <mxPoint x="420" y="410" as="targetPoint" />
            <Array as="points">
              <mxPoint x="520" y="160" />
              <mxPoint x="520" y="410" />
              <mxPoint x="420" y="410" />
            </Array>
          </mxGeometry>
        </mxCell>
        <mxCell id="lEdAFeIuMoSX6aFnRs92-4" value="&lt;font style=&quot;font-size: 15px;&quot; face=&quot;Times New Roman&quot;&gt;main_menu&lt;/font&gt;" style="rounded=0;whiteSpace=wrap;html=1;" parent="1" vertex="1">
          <mxGeometry x="360" y="130" width="120" height="60" as="geometry" />
        </mxCell>
        <mxCell id="lEdAFeIuMoSX6aFnRs92-13" value="" style="edgeStyle=orthogonalEdgeStyle;rounded=0;orthogonalLoop=1;jettySize=auto;html=1;endArrow=open;endFill=0;" parent="1" source="lEdAFeIuMoSX6aFnRs92-5" target="lEdAFeIuMoSX6aFnRs92-6" edge="1">
          <mxGeometry relative="1" as="geometry" />
        </mxCell>
        <mxCell id="lEdAFeIuMoSX6aFnRs92-5" value="&lt;font style=&quot;font-size: 15px;&quot; face=&quot;Times New Roman&quot;&gt;game&lt;/font&gt;" style="rounded=0;whiteSpace=wrap;html=1;" parent="1" vertex="1">
          <mxGeometry x="360" y="230" width="120" height="60" as="geometry" />
        </mxCell>
        <mxCell id="lEdAFeIuMoSX6aFnRs92-14" value="" style="edgeStyle=orthogonalEdgeStyle;rounded=0;orthogonalLoop=1;jettySize=auto;html=1;endArrow=open;endFill=0;" parent="1" source="lEdAFeIuMoSX6aFnRs92-6" target="lEdAFeIuMoSX6aFnRs92-3" edge="1">
          <mxGeometry relative="1" as="geometry" />
        </mxCell>
        <mxCell id="lEdAFeIuMoSX6aFnRs92-6" value="&lt;font style=&quot;font-size: 15px;&quot; face=&quot;Times New Roman&quot;&gt;end_menu&lt;/font&gt;" style="rounded=0;whiteSpace=wrap;html=1;" parent="1" vertex="1">
          <mxGeometry x="360" y="330" width="120" height="60" as="geometry" />
        </mxCell>
      </root>
    </mxGraphModel>
  </diagram>
  <diagram id="Bwv1BOabe-BqhytWN4eb" name="Страница 2">
    <mxGraphModel dx="1687" dy="948" grid="1" gridSize="10" guides="1" tooltips="1" connect="1" arrows="1" fold="1" page="1" pageScale="1" pageWidth="827" pageHeight="1169" math="0" shadow="0">
      <root>
        <mxCell id="0" />
        <mxCell id="1" parent="0" />
        <mxCell id="7zkGkpgqCMI7wJ9a_qlx-1" value="&lt;font face=&quot;Times New Roman&quot; style=&quot;font-size: 13px;&quot;&gt;Вход&lt;br&gt;server_start()&lt;/font&gt;" style="rounded=1;whiteSpace=wrap;html=1;arcSize=50;" vertex="1" parent="1">
          <mxGeometry x="360" y="20" width="160" height="60" as="geometry" />
        </mxCell>
        <mxCell id="7zkGkpgqCMI7wJ9a_qlx-2" value="&lt;font style=&quot;font-size: 13px;&quot; face=&quot;Times New Roman&quot;&gt;main_socket =socket.socket&lt;br&gt;(socket.AF_INET, socket.SOCK_STREAM)&lt;/font&gt;" style="rounded=0;whiteSpace=wrap;html=1;" vertex="1" parent="1">
          <mxGeometry x="360" y="120" width="160" height="60" as="geometry" />
        </mxCell>
        <mxCell id="7zkGkpgqCMI7wJ9a_qlx-3" value="" style="endArrow=none;html=1;rounded=0;exitX=0.5;exitY=0;exitDx=0;exitDy=0;entryX=0.5;entryY=1;entryDx=0;entryDy=0;" edge="1" parent="1" source="7zkGkpgqCMI7wJ9a_qlx-2" target="7zkGkpgqCMI7wJ9a_qlx-1">
          <mxGeometry width="50" height="50" relative="1" as="geometry">
            <mxPoint x="400" y="70" as="sourcePoint" />
            <mxPoint x="450" y="20" as="targetPoint" />
          </mxGeometry>
        </mxCell>
        <mxCell id="7zkGkpgqCMI7wJ9a_qlx-4" value="main_socket =socket.socket&lt;br&gt;(socket.AF_INET, socket.SOCK_STREAM)" style="rounded=0;whiteSpace=wrap;html=1;" vertex="1" parent="1">
          <mxGeometry x="360" y="220" width="160" height="60" as="geometry" />
        </mxCell>
        <mxCell id="7zkGkpgqCMI7wJ9a_qlx-5" value="" style="endArrow=none;html=1;rounded=0;exitX=0.5;exitY=0;exitDx=0;exitDy=0;entryX=0.5;entryY=1;entryDx=0;entryDy=0;" edge="1" parent="1" source="7zkGkpgqCMI7wJ9a_qlx-4" target="7zkGkpgqCMI7wJ9a_qlx-2">
          <mxGeometry width="50" height="50" relative="1" as="geometry">
            <mxPoint x="400" y="70" as="sourcePoint" />
            <mxPoint x="450" y="20" as="targetPoint" />
          </mxGeometry>
        </mxCell>
        <mxCell id="7zkGkpgqCMI7wJ9a_qlx-7" value="&lt;font face=&quot;Times New Roman&quot; style=&quot;font-size: 13px;&quot;&gt;Выход&lt;br&gt;server_start()&lt;/font&gt;" style="rounded=1;whiteSpace=wrap;html=1;arcSize=50;" vertex="1" parent="1">
          <mxGeometry x="360" y="620" width="160" height="60" as="geometry" />
        </mxCell>
        <mxCell id="7zkGkpgqCMI7wJ9a_qlx-8" value="&lt;font style=&quot;font-size: 12px;&quot; face=&quot;Times New Roman&quot;&gt;main_socket.setsockopt&lt;br&gt;(socket.IPPRORO_TCP,&lt;br&gt;socket.TCP_NODELAY,1)&lt;/font&gt;" style="shape=process;whiteSpace=wrap;html=1;backgroundOutline=1;size=0.0625;" vertex="1" parent="1">
          <mxGeometry x="360" y="220" width="160" height="60" as="geometry" />
        </mxCell>
        <mxCell id="7zkGkpgqCMI7wJ9a_qlx-9" value="&lt;font style=&quot;font-size: 13px;&quot; face=&quot;Times New Roman&quot;&gt;main_socket.bind&lt;br&gt;((localhost, 10000))&lt;/font&gt;" style="shape=process;whiteSpace=wrap;html=1;backgroundOutline=1;size=0.0625;" vertex="1" parent="1">
          <mxGeometry x="360" y="320" width="160" height="60" as="geometry" />
        </mxCell>
        <mxCell id="7zkGkpgqCMI7wJ9a_qlx-10" value="" style="endArrow=none;html=1;rounded=0;exitX=0.5;exitY=0;exitDx=0;exitDy=0;entryX=0.5;entryY=1;entryDx=0;entryDy=0;" edge="1" parent="1" source="7zkGkpgqCMI7wJ9a_qlx-9" target="7zkGkpgqCMI7wJ9a_qlx-8">
          <mxGeometry width="50" height="50" relative="1" as="geometry">
            <mxPoint x="400" y="280" as="sourcePoint" />
            <mxPoint x="450" y="230" as="targetPoint" />
          </mxGeometry>
        </mxCell>
        <mxCell id="7zkGkpgqCMI7wJ9a_qlx-11" value="&lt;font style=&quot;font-size: 13px;&quot; face=&quot;Times New Roman&quot;&gt;main_socket.setblocking&lt;br&gt;(0)&lt;/font&gt;" style="shape=process;whiteSpace=wrap;html=1;backgroundOutline=1;size=0.0625;" vertex="1" parent="1">
          <mxGeometry x="360" y="420" width="160" height="60" as="geometry" />
        </mxCell>
        <mxCell id="7zkGkpgqCMI7wJ9a_qlx-12" value="&lt;font style=&quot;font-size: 13px;&quot; face=&quot;Times New Roman&quot;&gt;main_socket.listen&lt;br&gt;(5)&lt;/font&gt;" style="shape=process;whiteSpace=wrap;html=1;backgroundOutline=1;size=0.0625;" vertex="1" parent="1">
          <mxGeometry x="360" y="524.5" width="160" height="60" as="geometry" />
        </mxCell>
        <mxCell id="7zkGkpgqCMI7wJ9a_qlx-13" value="" style="endArrow=none;html=1;rounded=0;entryX=0.5;entryY=1;entryDx=0;entryDy=0;exitX=0.5;exitY=0;exitDx=0;exitDy=0;" edge="1" parent="1" source="7zkGkpgqCMI7wJ9a_qlx-7" target="7zkGkpgqCMI7wJ9a_qlx-12">
          <mxGeometry width="50" height="50" relative="1" as="geometry">
            <mxPoint x="400" y="650" as="sourcePoint" />
            <mxPoint x="450" y="600" as="targetPoint" />
          </mxGeometry>
        </mxCell>
        <mxCell id="7zkGkpgqCMI7wJ9a_qlx-14" value="" style="endArrow=none;html=1;rounded=0;exitX=0.5;exitY=0;exitDx=0;exitDy=0;entryX=0.5;entryY=1;entryDx=0;entryDy=0;" edge="1" parent="1" source="7zkGkpgqCMI7wJ9a_qlx-12" target="7zkGkpgqCMI7wJ9a_qlx-11">
          <mxGeometry width="50" height="50" relative="1" as="geometry">
            <mxPoint x="400" y="440" as="sourcePoint" />
            <mxPoint x="450" y="390" as="targetPoint" />
          </mxGeometry>
        </mxCell>
        <mxCell id="7zkGkpgqCMI7wJ9a_qlx-15" value="" style="endArrow=none;html=1;rounded=0;entryX=0.5;entryY=1;entryDx=0;entryDy=0;exitX=0.5;exitY=0;exitDx=0;exitDy=0;" edge="1" parent="1" source="7zkGkpgqCMI7wJ9a_qlx-11" target="7zkGkpgqCMI7wJ9a_qlx-9">
          <mxGeometry width="50" height="50" relative="1" as="geometry">
            <mxPoint x="400" y="440" as="sourcePoint" />
            <mxPoint x="450" y="390" as="targetPoint" />
          </mxGeometry>
        </mxCell>
      </root>
    </mxGraphModel>
  </diagram>
  <diagram id="nLBpSBeKYmS9oX-KUAY1" name="Страница 3">
    <mxGraphModel dx="1434" dy="806" grid="1" gridSize="10" guides="1" tooltips="1" connect="1" arrows="1" fold="1" page="1" pageScale="1" pageWidth="827" pageHeight="1169" math="0" shadow="0">
      <root>
        <mxCell id="0" />
        <mxCell id="1" parent="0" />
        <mxCell id="nJFJ7uC5NvIeHJMW9nLx-1" value="&lt;font face=&quot;Times New Roman&quot; style=&quot;font-size: 13px;&quot;&gt;Вход&lt;br&gt;acceptNewPlayers()&lt;/font&gt;" style="rounded=1;whiteSpace=wrap;html=1;arcSize=50;" vertex="1" parent="1">
          <mxGeometry x="360" y="20" width="160" height="60" as="geometry" />
        </mxCell>
        <mxCell id="nJFJ7uC5NvIeHJMW9nLx-2" value="&lt;font face=&quot;Times New Roman&quot;&gt;&lt;span style=&quot;font-size: 13px;&quot;&gt;new_socket, addr = main_socket.accept()&lt;/span&gt;&lt;/font&gt;" style="rounded=0;whiteSpace=wrap;html=1;" vertex="1" parent="1">
          <mxGeometry x="360" y="120" width="160" height="60" as="geometry" />
        </mxCell>
        <mxCell id="nJFJ7uC5NvIeHJMW9nLx-3" value="" style="endArrow=none;html=1;rounded=0;exitX=0.5;exitY=0;exitDx=0;exitDy=0;entryX=0.5;entryY=1;entryDx=0;entryDy=0;" edge="1" parent="1" source="nJFJ7uC5NvIeHJMW9nLx-2" target="nJFJ7uC5NvIeHJMW9nLx-1">
          <mxGeometry width="50" height="50" relative="1" as="geometry">
            <mxPoint x="400" y="70" as="sourcePoint" />
            <mxPoint x="450" y="20" as="targetPoint" />
          </mxGeometry>
        </mxCell>
        <mxCell id="nJFJ7uC5NvIeHJMW9nLx-5" value="" style="endArrow=none;html=1;rounded=0;exitX=0.5;exitY=0;exitDx=0;exitDy=0;entryX=0.5;entryY=1;entryDx=0;entryDy=0;" edge="1" parent="1" target="nJFJ7uC5NvIeHJMW9nLx-2">
          <mxGeometry width="50" height="50" relative="1" as="geometry">
            <mxPoint x="440" y="220" as="sourcePoint" />
            <mxPoint x="450" y="20" as="targetPoint" />
          </mxGeometry>
        </mxCell>
        <mxCell id="nJFJ7uC5NvIeHJMW9nLx-6" value="&lt;font style=&quot;font-size: 13px;&quot;&gt;&lt;font face=&quot;Times New Roman&quot; style=&quot;font-size: 13px;&quot;&gt;Выход&lt;br&gt;&lt;/font&gt;&lt;font style=&quot;font-size: 13px;&quot; face=&quot;Times New Roman&quot;&gt;acceptNewPlayers&lt;/font&gt;()&lt;/font&gt;&lt;font face=&quot;Times New Roman&quot; style=&quot;font-size: 15px;&quot;&gt;&lt;br&gt;&lt;/font&gt;" style="rounded=1;whiteSpace=wrap;html=1;arcSize=50;" vertex="1" parent="1">
          <mxGeometry x="360" y="720" width="160" height="60" as="geometry" />
        </mxCell>
        <mxCell id="nJFJ7uC5NvIeHJMW9nLx-8" value="&lt;font style=&quot;font-size: 13px;&quot; face=&quot;Times New Roman&quot;&gt;main_socket.bind&lt;br&gt;((localhost, 10000))&lt;/font&gt;" style="shape=process;whiteSpace=wrap;html=1;backgroundOutline=1;size=0.0625;" vertex="1" parent="1">
          <mxGeometry x="360" y="320" width="160" height="60" as="geometry" />
        </mxCell>
        <mxCell id="nJFJ7uC5NvIeHJMW9nLx-9" value="" style="endArrow=none;html=1;rounded=0;exitX=0.5;exitY=0;exitDx=0;exitDy=0;entryX=0.5;entryY=1;entryDx=0;entryDy=0;" edge="1" parent="1" source="nJFJ7uC5NvIeHJMW9nLx-8">
          <mxGeometry width="50" height="50" relative="1" as="geometry">
            <mxPoint x="400" y="280" as="sourcePoint" />
            <mxPoint x="440" y="280" as="targetPoint" />
          </mxGeometry>
        </mxCell>
        <mxCell id="nJFJ7uC5NvIeHJMW9nLx-10" value="&lt;font style=&quot;font-size: 13px;&quot; face=&quot;Times New Roman&quot;&gt;main_socket.setblocking&lt;br&gt;(0)&lt;/font&gt;" style="shape=process;whiteSpace=wrap;html=1;backgroundOutline=1;size=0.0625;" vertex="1" parent="1">
          <mxGeometry x="360" y="420" width="160" height="60" as="geometry" />
        </mxCell>
        <mxCell id="nJFJ7uC5NvIeHJMW9nLx-11" value="&lt;font style=&quot;font-size: 13px;&quot; face=&quot;Times New Roman&quot;&gt;main_socket.listen&lt;br&gt;(5)&lt;/font&gt;" style="shape=process;whiteSpace=wrap;html=1;backgroundOutline=1;size=0.0625;" vertex="1" parent="1">
          <mxGeometry x="360" y="524.5" width="160" height="60" as="geometry" />
        </mxCell>
        <mxCell id="nJFJ7uC5NvIeHJMW9nLx-12" value="" style="endArrow=none;html=1;rounded=0;entryX=0.5;entryY=1;entryDx=0;entryDy=0;exitX=0.5;exitY=0;exitDx=0;exitDy=0;" edge="1" parent="1" source="nJFJ7uC5NvIeHJMW9nLx-6" target="nJFJ7uC5NvIeHJMW9nLx-11">
          <mxGeometry width="50" height="50" relative="1" as="geometry">
            <mxPoint x="400" y="650" as="sourcePoint" />
            <mxPoint x="450" y="600" as="targetPoint" />
          </mxGeometry>
        </mxCell>
        <mxCell id="nJFJ7uC5NvIeHJMW9nLx-13" value="" style="endArrow=none;html=1;rounded=0;exitX=0.5;exitY=0;exitDx=0;exitDy=0;entryX=0.5;entryY=1;entryDx=0;entryDy=0;" edge="1" parent="1" source="nJFJ7uC5NvIeHJMW9nLx-11" target="nJFJ7uC5NvIeHJMW9nLx-10">
          <mxGeometry width="50" height="50" relative="1" as="geometry">
            <mxPoint x="400" y="440" as="sourcePoint" />
            <mxPoint x="450" y="390" as="targetPoint" />
          </mxGeometry>
        </mxCell>
        <mxCell id="nJFJ7uC5NvIeHJMW9nLx-14" value="" style="endArrow=none;html=1;rounded=0;entryX=0.5;entryY=1;entryDx=0;entryDy=0;exitX=0.5;exitY=0;exitDx=0;exitDy=0;" edge="1" parent="1" source="nJFJ7uC5NvIeHJMW9nLx-10" target="nJFJ7uC5NvIeHJMW9nLx-8">
          <mxGeometry width="50" height="50" relative="1" as="geometry">
            <mxPoint x="400" y="440" as="sourcePoint" />
            <mxPoint x="450" y="390" as="targetPoint" />
          </mxGeometry>
        </mxCell>
        <mxCell id="nJFJ7uC5NvIeHJMW9nLx-15" value="&lt;font style=&quot;font-size: 14px;&quot; face=&quot;Times New Roman&quot;&gt;Вывод(addr)&lt;/font&gt;" style="shape=parallelogram;perimeter=parallelogramPerimeter;whiteSpace=wrap;html=1;fixedSize=1;" vertex="1" parent="1">
          <mxGeometry x="350" y="220" width="180" height="60" as="geometry" />
        </mxCell>
        <mxCell id="nJFJ7uC5NvIeHJMW9nLx-16" value="&lt;font style=&quot;font-size: 13px;&quot; face=&quot;Times New Roman&quot;&gt;new_socket.setblocking&lt;br&gt;(0)&lt;/font&gt;" style="shape=process;whiteSpace=wrap;html=1;backgroundOutline=1;size=0.0625;" vertex="1" parent="1">
          <mxGeometry x="360" y="320" width="160" height="60" as="geometry" />
        </mxCell>
        <mxCell id="nJFJ7uC5NvIeHJMW9nLx-17" value="&lt;font face=&quot;Times New Roman&quot;&gt;&lt;span style=&quot;font-size: 13px;&quot;&gt;new_player = Player(new_socket, addr, 7)&lt;/span&gt;&lt;/font&gt;" style="rounded=0;whiteSpace=wrap;html=1;" vertex="1" parent="1">
          <mxGeometry x="360" y="420" width="160" height="60" as="geometry" />
        </mxCell>
        <mxCell id="nJFJ7uC5NvIeHJMW9nLx-18" value="&lt;font face=&quot;Times New Roman&quot;&gt;&lt;span style=&quot;font-size: 13px;&quot;&gt;players.append (new_player)&lt;/span&gt;&lt;/font&gt;" style="shape=process;whiteSpace=wrap;html=1;backgroundOutline=1;size=0.0625;" vertex="1" parent="1">
          <mxGeometry x="360" y="525" width="160" height="60" as="geometry" />
        </mxCell>
        <mxCell id="nJFJ7uC5NvIeHJMW9nLx-19" value="&lt;font face=&quot;Times New Roman&quot;&gt;&lt;span style=&quot;font-size: 13px;&quot;&gt;new_socket.send (str(len(players)).encode() +cardTable)&lt;/span&gt;&lt;/font&gt;" style="shape=process;whiteSpace=wrap;html=1;backgroundOutline=1;size=0.0625;" vertex="1" parent="1">
          <mxGeometry x="360" y="620" width="160" height="60" as="geometry" />
        </mxCell>
      </root>
    </mxGraphModel>
  </diagram>
  <diagram id="FVhyovWSA2jTt0DIomUv" name="Страница 4">
    <mxGraphModel dx="2390" dy="1343" grid="1" gridSize="10" guides="1" tooltips="1" connect="1" arrows="1" fold="1" page="1" pageScale="1" pageWidth="827" pageHeight="1169" math="0" shadow="0">
      <root>
        <mxCell id="0" />
        <mxCell id="1" parent="0" />
        <mxCell id="GK6pilVMmQejgJdw7L8S-46" value="" style="edgeStyle=orthogonalEdgeStyle;rounded=0;orthogonalLoop=1;jettySize=auto;html=1;endArrow=none;endFill=0;" edge="1" parent="1" source="GK6pilVMmQejgJdw7L8S-1" target="GK6pilVMmQejgJdw7L8S-45">
          <mxGeometry relative="1" as="geometry" />
        </mxCell>
        <mxCell id="GK6pilVMmQejgJdw7L8S-1" value="&lt;font face=&quot;Times New Roman&quot; style=&quot;font-size: 13px;&quot;&gt;Вход&lt;br&gt;updateDataOnServer()&lt;/font&gt;" style="rounded=1;whiteSpace=wrap;html=1;arcSize=50;" vertex="1" parent="1">
          <mxGeometry x="40" y="40" width="160" height="60" as="geometry" />
        </mxCell>
        <mxCell id="GK6pilVMmQejgJdw7L8S-5" value="&lt;font style=&quot;font-size: 13px;&quot;&gt;&lt;font face=&quot;Times New Roman&quot; style=&quot;font-size: 13px;&quot;&gt;Выход&lt;br&gt;&lt;/font&gt;&lt;font style=&quot;font-size: 13px;&quot; face=&quot;Times New Roman&quot;&gt;updateDataOnServer&lt;/font&gt;()&lt;/font&gt;&lt;font face=&quot;Times New Roman&quot; style=&quot;font-size: 15px;&quot;&gt;&lt;br&gt;&lt;/font&gt;" style="rounded=1;whiteSpace=wrap;html=1;arcSize=50;" vertex="1" parent="1">
          <mxGeometry x="40" y="720" width="160" height="60" as="geometry" />
        </mxCell>
        <mxCell id="GK6pilVMmQejgJdw7L8S-22" value="" style="edgeStyle=orthogonalEdgeStyle;rounded=0;orthogonalLoop=1;jettySize=auto;html=1;endArrow=open;endFill=0;" edge="1" parent="1" source="GK6pilVMmQejgJdw7L8S-18" target="GK6pilVMmQejgJdw7L8S-19">
          <mxGeometry relative="1" as="geometry" />
        </mxCell>
        <mxCell id="GK6pilVMmQejgJdw7L8S-23" style="edgeStyle=orthogonalEdgeStyle;rounded=0;orthogonalLoop=1;jettySize=auto;html=1;entryX=0.5;entryY=0;entryDx=0;entryDy=0;endArrow=open;endFill=0;" edge="1" parent="1" source="GK6pilVMmQejgJdw7L8S-18" target="GK6pilVMmQejgJdw7L8S-20">
          <mxGeometry relative="1" as="geometry" />
        </mxCell>
        <mxCell id="GK6pilVMmQejgJdw7L8S-18" value="&lt;font style=&quot;font-size: 13px;&quot; face=&quot;Times New Roman&quot;&gt;currentPl&lt;/font&gt;" style="rhombus;whiteSpace=wrap;html=1;" vertex="1" parent="1">
          <mxGeometry x="40" y="380" width="160" height="80" as="geometry" />
        </mxCell>
        <mxCell id="GK6pilVMmQejgJdw7L8S-58" value="" style="edgeStyle=orthogonalEdgeStyle;rounded=0;orthogonalLoop=1;jettySize=auto;html=1;endArrow=none;endFill=0;" edge="1" parent="1" source="GK6pilVMmQejgJdw7L8S-19" target="GK6pilVMmQejgJdw7L8S-56">
          <mxGeometry relative="1" as="geometry" />
        </mxCell>
        <mxCell id="GK6pilVMmQejgJdw7L8S-19" value="&lt;font style=&quot;font-size: 14px;&quot; face=&quot;Times New Roman&quot;&gt;currentPl = 2&lt;/font&gt;" style="rounded=0;whiteSpace=wrap;html=1;" vertex="1" parent="1">
          <mxGeometry x="40" y="510" width="160" height="60" as="geometry" />
        </mxCell>
        <mxCell id="GK6pilVMmQejgJdw7L8S-20" value="" style="rounded=0;whiteSpace=wrap;html=1;" vertex="1" parent="1">
          <mxGeometry x="270" y="505" width="160" height="60" as="geometry" />
        </mxCell>
        <mxCell id="GK6pilVMmQejgJdw7L8S-25" value="1" style="text;html=1;align=center;verticalAlign=middle;resizable=0;points=[];autosize=1;strokeColor=none;fillColor=none;" vertex="1" parent="1">
          <mxGeometry x="115" y="458" width="30" height="30" as="geometry" />
        </mxCell>
        <mxCell id="GK6pilVMmQejgJdw7L8S-26" value="2" style="text;html=1;align=center;verticalAlign=middle;resizable=0;points=[];autosize=1;strokeColor=none;fillColor=none;" vertex="1" parent="1">
          <mxGeometry x="195" y="398" width="30" height="30" as="geometry" />
        </mxCell>
        <mxCell id="GK6pilVMmQejgJdw7L8S-60" value="" style="edgeStyle=orthogonalEdgeStyle;rounded=0;orthogonalLoop=1;jettySize=auto;html=1;endArrow=none;endFill=0;" edge="1" parent="1" source="GK6pilVMmQejgJdw7L8S-27" target="GK6pilVMmQejgJdw7L8S-57">
          <mxGeometry relative="1" as="geometry" />
        </mxCell>
        <mxCell id="GK6pilVMmQejgJdw7L8S-27" value="&lt;font style=&quot;font-size: 14px;&quot; face=&quot;Times New Roman&quot;&gt;currentPl = 1&lt;/font&gt;" style="rounded=0;whiteSpace=wrap;html=1;" vertex="1" parent="1">
          <mxGeometry x="270" y="505" width="160" height="60" as="geometry" />
        </mxCell>
        <mxCell id="GK6pilVMmQejgJdw7L8S-36" style="edgeStyle=orthogonalEdgeStyle;rounded=0;orthogonalLoop=1;jettySize=auto;html=1;exitX=0.5;exitY=1;exitDx=0;exitDy=0;" edge="1" parent="1" source="GK6pilVMmQejgJdw7L8S-27" target="GK6pilVMmQejgJdw7L8S-27">
          <mxGeometry relative="1" as="geometry" />
        </mxCell>
        <mxCell id="GK6pilVMmQejgJdw7L8S-49" value="" style="edgeStyle=orthogonalEdgeStyle;rounded=0;orthogonalLoop=1;jettySize=auto;html=1;endArrow=open;endFill=0;" edge="1" parent="1" source="GK6pilVMmQejgJdw7L8S-45" target="GK6pilVMmQejgJdw7L8S-47">
          <mxGeometry relative="1" as="geometry" />
        </mxCell>
        <mxCell id="GK6pilVMmQejgJdw7L8S-50" style="edgeStyle=orthogonalEdgeStyle;rounded=0;orthogonalLoop=1;jettySize=auto;html=1;entryX=0.5;entryY=0;entryDx=0;entryDy=0;endArrow=open;endFill=0;" edge="1" parent="1" source="GK6pilVMmQejgJdw7L8S-45" target="GK6pilVMmQejgJdw7L8S-48">
          <mxGeometry relative="1" as="geometry" />
        </mxCell>
        <mxCell id="GK6pilVMmQejgJdw7L8S-45" value="&lt;font style=&quot;font-size: 13px;&quot; face=&quot;Times New Roman&quot;&gt;len(data)&amp;gt;5&lt;/font&gt;" style="rhombus;whiteSpace=wrap;html=1;" vertex="1" parent="1">
          <mxGeometry x="40" y="140" width="160" height="80" as="geometry" />
        </mxCell>
        <mxCell id="GK6pilVMmQejgJdw7L8S-53" style="edgeStyle=orthogonalEdgeStyle;rounded=0;orthogonalLoop=1;jettySize=auto;html=1;entryX=0.5;entryY=0;entryDx=0;entryDy=0;endArrow=open;endFill=0;" edge="1" parent="1" source="GK6pilVMmQejgJdw7L8S-47" target="GK6pilVMmQejgJdw7L8S-18">
          <mxGeometry relative="1" as="geometry" />
        </mxCell>
        <mxCell id="GK6pilVMmQejgJdw7L8S-47" value="&lt;font style=&quot;font-size: 14px;&quot; face=&quot;Times New Roman&quot;&gt;enCards = int(data[4])&lt;/font&gt;" style="rounded=0;whiteSpace=wrap;html=1;" vertex="1" parent="1">
          <mxGeometry x="40" y="260" width="160" height="60" as="geometry" />
        </mxCell>
        <mxCell id="GK6pilVMmQejgJdw7L8S-55" style="edgeStyle=orthogonalEdgeStyle;rounded=0;orthogonalLoop=1;jettySize=auto;html=1;endArrow=open;endFill=0;" edge="1" parent="1" source="GK6pilVMmQejgJdw7L8S-48">
          <mxGeometry relative="1" as="geometry">
            <mxPoint x="120" y="350" as="targetPoint" />
            <Array as="points">
              <mxPoint x="350" y="350" />
              <mxPoint x="120" y="350" />
            </Array>
          </mxGeometry>
        </mxCell>
        <mxCell id="GK6pilVMmQejgJdw7L8S-48" value="&lt;font style=&quot;font-size: 14px;&quot; face=&quot;Times New Roman&quot;&gt;enCards = int(data[4:6])&lt;/font&gt;" style="rounded=0;whiteSpace=wrap;html=1;" vertex="1" parent="1">
          <mxGeometry x="270" y="258" width="160" height="60" as="geometry" />
        </mxCell>
        <mxCell id="GK6pilVMmQejgJdw7L8S-51" value="Да" style="text;html=1;align=center;verticalAlign=middle;resizable=0;points=[];autosize=1;strokeColor=none;fillColor=none;" vertex="1" parent="1">
          <mxGeometry x="200" y="158" width="40" height="30" as="geometry" />
        </mxCell>
        <mxCell id="GK6pilVMmQejgJdw7L8S-52" value="&amp;nbsp; Нет" style="text;html=1;align=center;verticalAlign=middle;resizable=0;points=[];autosize=1;strokeColor=none;fillColor=none;" vertex="1" parent="1">
          <mxGeometry x="105" y="228" width="50" height="30" as="geometry" />
        </mxCell>
        <mxCell id="GK6pilVMmQejgJdw7L8S-61" value="" style="edgeStyle=orthogonalEdgeStyle;rounded=0;orthogonalLoop=1;jettySize=auto;html=1;endArrow=none;endFill=0;" edge="1" parent="1" source="GK6pilVMmQejgJdw7L8S-56" target="GK6pilVMmQejgJdw7L8S-5">
          <mxGeometry relative="1" as="geometry" />
        </mxCell>
        <mxCell id="GK6pilVMmQejgJdw7L8S-56" value="&lt;font face=&quot;Times New Roman&quot;&gt;&lt;span style=&quot;font-size: 14px;&quot;&gt;players[0].count = enCards&lt;/span&gt;&lt;/font&gt;" style="rounded=0;whiteSpace=wrap;html=1;" vertex="1" parent="1">
          <mxGeometry x="40" y="610" width="160" height="60" as="geometry" />
        </mxCell>
        <mxCell id="GK6pilVMmQejgJdw7L8S-62" style="edgeStyle=orthogonalEdgeStyle;rounded=0;orthogonalLoop=1;jettySize=auto;html=1;endArrow=open;endFill=0;" edge="1" parent="1" source="GK6pilVMmQejgJdw7L8S-57">
          <mxGeometry relative="1" as="geometry">
            <mxPoint x="120" y="690" as="targetPoint" />
            <Array as="points">
              <mxPoint x="350" y="690" />
            </Array>
          </mxGeometry>
        </mxCell>
        <mxCell id="GK6pilVMmQejgJdw7L8S-57" value="&lt;font face=&quot;Times New Roman&quot;&gt;&lt;span style=&quot;font-size: 14px;&quot;&gt;players[1].count = enCards&lt;/span&gt;&lt;/font&gt;" style="rounded=0;whiteSpace=wrap;html=1;" vertex="1" parent="1">
          <mxGeometry x="270" y="605" width="160" height="60" as="geometry" />
        </mxCell>
      </root>
    </mxGraphModel>
  </diagram>
  <diagram id="s83bONSAGWfSB5g09Dp1" name="Страница 5">
    <mxGraphModel dx="3187" dy="1791" grid="1" gridSize="10" guides="1" tooltips="1" connect="1" arrows="1" fold="1" page="1" pageScale="1" pageWidth="827" pageHeight="1169" math="0" shadow="0">
      <root>
        <mxCell id="0" />
        <mxCell id="1" parent="0" />
        <mxCell id="CjGHLumSMmEt1Hvi6oTr-28" value="" style="edgeStyle=orthogonalEdgeStyle;rounded=0;orthogonalLoop=1;jettySize=auto;html=1;endArrow=none;endFill=0;" edge="1" parent="1" source="CjGHLumSMmEt1Hvi6oTr-2" target="CjGHLumSMmEt1Hvi6oTr-19">
          <mxGeometry relative="1" as="geometry" />
        </mxCell>
        <mxCell id="CjGHLumSMmEt1Hvi6oTr-2" value="&lt;font face=&quot;Times New Roman&quot; style=&quot;font-size: 13px;&quot;&gt;Вход&lt;br&gt;acceptFromServer()&lt;/font&gt;" style="rounded=1;whiteSpace=wrap;html=1;arcSize=50;" vertex="1" parent="1">
          <mxGeometry x="200" width="160" height="60" as="geometry" />
        </mxCell>
        <mxCell id="CjGHLumSMmEt1Hvi6oTr-3" value="&lt;font style=&quot;font-size: 13px;&quot; face=&quot;Times New Roman&quot;&gt;&lt;font style=&quot;font-size: 13px;&quot;&gt;&lt;font style=&quot;font-size: 13px;&quot;&gt;Выход&lt;br&gt;&lt;/font&gt;&lt;/font&gt;acceptFromServer()&lt;/font&gt;&lt;font face=&quot;Times New Roman&quot; style=&quot;font-size: 15px;&quot;&gt;&lt;br&gt;&lt;/font&gt;" style="rounded=1;whiteSpace=wrap;html=1;arcSize=50;" vertex="1" parent="1">
          <mxGeometry x="200" y="1100" width="160" height="60" as="geometry" />
        </mxCell>
        <mxCell id="CjGHLumSMmEt1Hvi6oTr-4" value="" style="edgeStyle=orthogonalEdgeStyle;rounded=0;orthogonalLoop=1;jettySize=auto;html=1;endArrow=open;endFill=0;" edge="1" parent="1" source="CjGHLumSMmEt1Hvi6oTr-6" target="CjGHLumSMmEt1Hvi6oTr-8">
          <mxGeometry relative="1" as="geometry" />
        </mxCell>
        <mxCell id="CjGHLumSMmEt1Hvi6oTr-5" style="edgeStyle=orthogonalEdgeStyle;rounded=0;orthogonalLoop=1;jettySize=auto;html=1;entryX=0.5;entryY=0;entryDx=0;entryDy=0;endArrow=open;endFill=0;" edge="1" parent="1" source="CjGHLumSMmEt1Hvi6oTr-6" target="CjGHLumSMmEt1Hvi6oTr-9">
          <mxGeometry relative="1" as="geometry" />
        </mxCell>
        <mxCell id="CjGHLumSMmEt1Hvi6oTr-6" value="&lt;font style=&quot;font-size: 13px;&quot; face=&quot;Times New Roman&quot;&gt;numberOfPl&lt;/font&gt;" style="rhombus;whiteSpace=wrap;html=1;" vertex="1" parent="1">
          <mxGeometry x="200" y="300" width="160" height="80" as="geometry" />
        </mxCell>
        <mxCell id="CjGHLumSMmEt1Hvi6oTr-8" value="&lt;font style=&quot;font-size: 14px;&quot; face=&quot;Times New Roman&quot;&gt;enemyCards = enemyCards2&lt;/font&gt;" style="rounded=0;whiteSpace=wrap;html=1;" vertex="1" parent="1">
          <mxGeometry x="200" y="430" width="160" height="60" as="geometry" />
        </mxCell>
        <mxCell id="CjGHLumSMmEt1Hvi6oTr-9" value="" style="rounded=0;whiteSpace=wrap;html=1;" vertex="1" parent="1">
          <mxGeometry x="430" y="425" width="160" height="60" as="geometry" />
        </mxCell>
        <mxCell id="CjGHLumSMmEt1Hvi6oTr-10" value="1" style="text;html=1;align=center;verticalAlign=middle;resizable=0;points=[];autosize=1;strokeColor=none;fillColor=none;" vertex="1" parent="1">
          <mxGeometry x="275" y="378" width="30" height="30" as="geometry" />
        </mxCell>
        <mxCell id="CjGHLumSMmEt1Hvi6oTr-11" value="2" style="text;html=1;align=center;verticalAlign=middle;resizable=0;points=[];autosize=1;strokeColor=none;fillColor=none;" vertex="1" parent="1">
          <mxGeometry x="355" y="318" width="30" height="30" as="geometry" />
        </mxCell>
        <mxCell id="CjGHLumSMmEt1Hvi6oTr-13" value="&lt;font style=&quot;font-size: 14px;&quot; face=&quot;Times New Roman&quot;&gt;enemyCards = enemyCards1&lt;/font&gt;" style="rounded=0;whiteSpace=wrap;html=1;" vertex="1" parent="1">
          <mxGeometry x="430" y="425" width="160" height="60" as="geometry" />
        </mxCell>
        <mxCell id="CjGHLumSMmEt1Hvi6oTr-14" style="edgeStyle=orthogonalEdgeStyle;rounded=0;orthogonalLoop=1;jettySize=auto;html=1;exitX=0.5;exitY=1;exitDx=0;exitDy=0;" edge="1" parent="1" source="CjGHLumSMmEt1Hvi6oTr-13" target="CjGHLumSMmEt1Hvi6oTr-13">
          <mxGeometry relative="1" as="geometry" />
        </mxCell>
        <mxCell id="CjGHLumSMmEt1Hvi6oTr-18" style="edgeStyle=orthogonalEdgeStyle;rounded=0;orthogonalLoop=1;jettySize=auto;html=1;entryX=0.5;entryY=0;entryDx=0;entryDy=0;endArrow=open;endFill=0;" edge="1" parent="1" source="CjGHLumSMmEt1Hvi6oTr-19" target="CjGHLumSMmEt1Hvi6oTr-6">
          <mxGeometry relative="1" as="geometry" />
        </mxCell>
        <mxCell id="CjGHLumSMmEt1Hvi6oTr-19" value="&lt;font style=&quot;font-size: 14px;&quot; face=&quot;Times New Roman&quot;&gt;data = sock.recv(1024).decode()&lt;/font&gt;" style="rounded=0;whiteSpace=wrap;html=1;" vertex="1" parent="1">
          <mxGeometry x="200" y="100" width="160" height="60" as="geometry" />
        </mxCell>
        <mxCell id="CjGHLumSMmEt1Hvi6oTr-24" value="" style="edgeStyle=orthogonalEdgeStyle;rounded=0;orthogonalLoop=1;jettySize=auto;html=1;endArrow=none;endFill=0;exitX=0.5;exitY=1;exitDx=0;exitDy=0;" edge="1" parent="1" source="CjGHLumSMmEt1Hvi6oTr-8" target="CjGHLumSMmEt1Hvi6oTr-3">
          <mxGeometry relative="1" as="geometry">
            <mxPoint x="280" y="590" as="sourcePoint" />
          </mxGeometry>
        </mxCell>
        <mxCell id="CjGHLumSMmEt1Hvi6oTr-26" style="edgeStyle=orthogonalEdgeStyle;rounded=0;orthogonalLoop=1;jettySize=auto;html=1;endArrow=open;endFill=0;exitX=0.5;exitY=1;exitDx=0;exitDy=0;" edge="1" parent="1" source="CjGHLumSMmEt1Hvi6oTr-13">
          <mxGeometry relative="1" as="geometry">
            <mxPoint x="280" y="520" as="targetPoint" />
            <Array as="points">
              <mxPoint x="510" y="520" />
              <mxPoint x="280" y="520" />
            </Array>
            <mxPoint x="510" y="585" as="sourcePoint" />
          </mxGeometry>
        </mxCell>
        <mxCell id="CjGHLumSMmEt1Hvi6oTr-29" value="&lt;font face=&quot;Times New Roman&quot;&gt;&lt;span style=&quot;font-size: 14px;&quot;&gt;enemyCards1= int(data[4]),&lt;br&gt;enemyCards2 = int(data[5])&lt;br&gt;&lt;/span&gt;&lt;/font&gt;" style="rounded=0;whiteSpace=wrap;html=1;" vertex="1" parent="1">
          <mxGeometry x="200" y="200" width="160" height="60" as="geometry" />
        </mxCell>
        <mxCell id="CjGHLumSMmEt1Hvi6oTr-30" value="" style="edgeStyle=orthogonalEdgeStyle;rounded=0;orthogonalLoop=1;jettySize=auto;html=1;endArrow=open;endFill=0;" edge="1" parent="1" source="CjGHLumSMmEt1Hvi6oTr-32" target="CjGHLumSMmEt1Hvi6oTr-33">
          <mxGeometry relative="1" as="geometry" />
        </mxCell>
        <mxCell id="CjGHLumSMmEt1Hvi6oTr-32" value="&lt;font style=&quot;font-size: 13px;&quot; face=&quot;Times New Roman&quot;&gt;enemyCards &amp;lt; &lt;br&gt;len(enemySet)&lt;/font&gt;" style="rhombus;whiteSpace=wrap;html=1;" vertex="1" parent="1">
          <mxGeometry x="200" y="530" width="160" height="80" as="geometry" />
        </mxCell>
        <mxCell id="CjGHLumSMmEt1Hvi6oTr-33" value="&lt;font face=&quot;Times New Roman&quot;&gt;&lt;span style=&quot;font-size: 14px;&quot;&gt;enemy&lt;/span&gt;&lt;/font&gt;" style="rounded=0;whiteSpace=wrap;html=1;" vertex="1" parent="1">
          <mxGeometry x="200" y="640" width="160" height="60" as="geometry" />
        </mxCell>
        <mxCell id="CjGHLumSMmEt1Hvi6oTr-35" value="Да" style="text;html=1;align=center;verticalAlign=middle;resizable=0;points=[];autosize=1;strokeColor=none;fillColor=none;" vertex="1" parent="1">
          <mxGeometry x="270" y="608" width="40" height="30" as="geometry" />
        </mxCell>
        <mxCell id="CjGHLumSMmEt1Hvi6oTr-36" value="Нет" style="text;html=1;align=center;verticalAlign=middle;resizable=0;points=[];autosize=1;strokeColor=none;fillColor=none;" vertex="1" parent="1">
          <mxGeometry x="350" y="548" width="40" height="30" as="geometry" />
        </mxCell>
        <mxCell id="CjGHLumSMmEt1Hvi6oTr-38" style="edgeStyle=orthogonalEdgeStyle;rounded=0;orthogonalLoop=1;jettySize=auto;html=1;exitX=0.5;exitY=1;exitDx=0;exitDy=0;" edge="1" parent="1">
          <mxGeometry relative="1" as="geometry">
            <mxPoint x="510" y="715" as="sourcePoint" />
            <mxPoint x="510" y="715" as="targetPoint" />
          </mxGeometry>
        </mxCell>
        <mxCell id="CjGHLumSMmEt1Hvi6oTr-39" style="edgeStyle=orthogonalEdgeStyle;rounded=0;orthogonalLoop=1;jettySize=auto;html=1;endArrow=open;endFill=0;exitX=1;exitY=0.5;exitDx=0;exitDy=0;" edge="1" parent="1" source="CjGHLumSMmEt1Hvi6oTr-32">
          <mxGeometry relative="1" as="geometry">
            <mxPoint x="280" y="710" as="targetPoint" />
            <Array as="points">
              <mxPoint x="380" y="570" />
              <mxPoint x="380" y="710" />
              <mxPoint x="280" y="710" />
            </Array>
            <mxPoint x="510" y="715" as="sourcePoint" />
          </mxGeometry>
        </mxCell>
        <mxCell id="N3HayZAY77Lp-IZao8vy-1" value="&lt;font face=&quot;Times New Roman&quot;&gt;&lt;span style=&quot;font-size: 13px;&quot;&gt;enemySet.pop(0)&lt;/span&gt;&lt;/font&gt;" style="shape=process;whiteSpace=wrap;html=1;backgroundOutline=1;size=0.0625;" vertex="1" parent="1">
          <mxGeometry x="200" y="640" width="160" height="60" as="geometry" />
        </mxCell>
        <mxCell id="N3HayZAY77Lp-IZao8vy-2" value="" style="edgeStyle=orthogonalEdgeStyle;rounded=0;orthogonalLoop=1;jettySize=auto;html=1;endArrow=open;endFill=0;" edge="1" parent="1" source="N3HayZAY77Lp-IZao8vy-3" target="N3HayZAY77Lp-IZao8vy-4">
          <mxGeometry relative="1" as="geometry" />
        </mxCell>
        <mxCell id="N3HayZAY77Lp-IZao8vy-3" value="&lt;font style=&quot;font-size: 13px;&quot; face=&quot;Times New Roman&quot;&gt;enemyCards &amp;gt;&lt;br&gt;len(enemySet)&lt;/font&gt;" style="rhombus;whiteSpace=wrap;html=1;" vertex="1" parent="1">
          <mxGeometry x="200" y="720" width="160" height="80" as="geometry" />
        </mxCell>
        <mxCell id="N3HayZAY77Lp-IZao8vy-4" value="&lt;font face=&quot;Times New Roman&quot;&gt;&lt;span style=&quot;font-size: 14px;&quot;&gt;enemy&lt;/span&gt;&lt;/font&gt;" style="rounded=0;whiteSpace=wrap;html=1;" vertex="1" parent="1">
          <mxGeometry x="200" y="820" width="160" height="60" as="geometry" />
        </mxCell>
        <mxCell id="N3HayZAY77Lp-IZao8vy-5" value="Да" style="text;html=1;align=center;verticalAlign=middle;resizable=0;points=[];autosize=1;strokeColor=none;fillColor=none;" vertex="1" parent="1">
          <mxGeometry x="270" y="790" width="40" height="30" as="geometry" />
        </mxCell>
        <mxCell id="N3HayZAY77Lp-IZao8vy-6" value="Нет" style="text;html=1;align=center;verticalAlign=middle;resizable=0;points=[];autosize=1;strokeColor=none;fillColor=none;" vertex="1" parent="1">
          <mxGeometry x="350" y="730" width="40" height="30" as="geometry" />
        </mxCell>
        <mxCell id="N3HayZAY77Lp-IZao8vy-7" style="edgeStyle=orthogonalEdgeStyle;rounded=0;orthogonalLoop=1;jettySize=auto;html=1;endArrow=open;endFill=0;exitX=1;exitY=0.5;exitDx=0;exitDy=0;" edge="1" parent="1" source="N3HayZAY77Lp-IZao8vy-3">
          <mxGeometry relative="1" as="geometry">
            <mxPoint x="280" y="890" as="targetPoint" />
            <Array as="points">
              <mxPoint x="380" y="760" />
              <mxPoint x="380" y="890" />
              <mxPoint x="280" y="890" />
            </Array>
            <mxPoint x="510" y="925" as="sourcePoint" />
          </mxGeometry>
        </mxCell>
        <mxCell id="N3HayZAY77Lp-IZao8vy-8" value="&lt;font face=&quot;Times New Roman&quot;&gt;&lt;span style=&quot;font-size: 13px;&quot;&gt;enemySet.append (Card(1,1))&lt;/span&gt;&lt;/font&gt;" style="shape=process;whiteSpace=wrap;html=1;backgroundOutline=1;size=0.0625;" vertex="1" parent="1">
          <mxGeometry x="200" y="820" width="160" height="60" as="geometry" />
        </mxCell>
        <mxCell id="N3HayZAY77Lp-IZao8vy-9" value="" style="edgeStyle=orthogonalEdgeStyle;rounded=0;orthogonalLoop=1;jettySize=auto;html=1;endArrow=open;endFill=0;" edge="1" parent="1" source="N3HayZAY77Lp-IZao8vy-10" target="N3HayZAY77Lp-IZao8vy-11">
          <mxGeometry relative="1" as="geometry" />
        </mxCell>
        <mxCell id="N3HayZAY77Lp-IZao8vy-10" value="&lt;font face=&quot;Times New Roman&quot;&gt;&lt;span style=&quot;font-size: 13px;&quot;&gt;numberOfPl ==&amp;nbsp; &amp;nbsp; &amp;nbsp; &amp;nbsp; int(data[0])&lt;/span&gt;&lt;/font&gt;" style="rhombus;whiteSpace=wrap;html=1;" vertex="1" parent="1">
          <mxGeometry x="200" y="900" width="160" height="80" as="geometry" />
        </mxCell>
        <mxCell id="N3HayZAY77Lp-IZao8vy-11" value="&lt;font face=&quot;Times New Roman&quot;&gt;&lt;span style=&quot;font-size: 14px;&quot;&gt;isMyPut = True&lt;/span&gt;&lt;/font&gt;" style="rounded=0;whiteSpace=wrap;html=1;" vertex="1" parent="1">
          <mxGeometry x="200" y="1000" width="160" height="60" as="geometry" />
        </mxCell>
        <mxCell id="N3HayZAY77Lp-IZao8vy-12" value="Да" style="text;html=1;align=center;verticalAlign=middle;resizable=0;points=[];autosize=1;strokeColor=none;fillColor=none;" vertex="1" parent="1">
          <mxGeometry x="275" y="970" width="40" height="30" as="geometry" />
        </mxCell>
        <mxCell id="N3HayZAY77Lp-IZao8vy-13" value="Нет" style="text;html=1;align=center;verticalAlign=middle;resizable=0;points=[];autosize=1;strokeColor=none;fillColor=none;" vertex="1" parent="1">
          <mxGeometry x="370" y="920" width="40" height="30" as="geometry" />
        </mxCell>
        <mxCell id="N3HayZAY77Lp-IZao8vy-14" style="edgeStyle=orthogonalEdgeStyle;rounded=0;orthogonalLoop=1;jettySize=auto;html=1;endArrow=open;endFill=0;exitX=1;exitY=0.5;exitDx=0;exitDy=0;entryX=0.5;entryY=0;entryDx=0;entryDy=0;" edge="1" parent="1" source="N3HayZAY77Lp-IZao8vy-10" target="N3HayZAY77Lp-IZao8vy-16">
          <mxGeometry relative="1" as="geometry">
            <mxPoint x="280" y="1070" as="targetPoint" />
            <Array as="points">
              <mxPoint x="470" y="940" />
            </Array>
            <mxPoint x="510" y="1135" as="sourcePoint" />
          </mxGeometry>
        </mxCell>
        <mxCell id="N3HayZAY77Lp-IZao8vy-17" style="edgeStyle=orthogonalEdgeStyle;rounded=0;orthogonalLoop=1;jettySize=auto;html=1;endArrow=open;endFill=0;" edge="1" parent="1" source="N3HayZAY77Lp-IZao8vy-16">
          <mxGeometry relative="1" as="geometry">
            <mxPoint x="280" y="1080" as="targetPoint" />
            <Array as="points">
              <mxPoint x="470" y="1080" />
              <mxPoint x="280" y="1080" />
            </Array>
          </mxGeometry>
        </mxCell>
        <mxCell id="N3HayZAY77Lp-IZao8vy-16" value="&lt;font face=&quot;Times New Roman&quot;&gt;&lt;span style=&quot;font-size: 14px;&quot;&gt;isMyPut = True&lt;/span&gt;&lt;/font&gt;" style="rounded=0;whiteSpace=wrap;html=1;" vertex="1" parent="1">
          <mxGeometry x="390" y="1000" width="160" height="60" as="geometry" />
        </mxCell>
      </root>
    </mxGraphModel>
  </diagram>
  <diagram id="3oDfysVK5EuBL0mBtxdK" name="Страница 6">
    <mxGraphModel dx="1687" dy="948" grid="1" gridSize="10" guides="1" tooltips="1" connect="1" arrows="1" fold="1" page="1" pageScale="1" pageWidth="827" pageHeight="1169" math="0" shadow="0">
      <root>
        <mxCell id="0" />
        <mxCell id="1" parent="0" />
        <mxCell id="6lmwBm1dGyEf7iBIFJtt-2" value="&lt;font face=&quot;Times New Roman&quot; style=&quot;font-size: 13px;&quot;&gt;Вход&lt;br&gt;sendToServer()&lt;/font&gt;" style="rounded=1;whiteSpace=wrap;html=1;arcSize=50;" vertex="1" parent="1">
          <mxGeometry x="200" width="160" height="60" as="geometry" />
        </mxCell>
        <mxCell id="6lmwBm1dGyEf7iBIFJtt-3" value="&lt;font style=&quot;font-size: 13px;&quot; face=&quot;Times New Roman&quot;&gt;&lt;font style=&quot;font-size: 13px;&quot;&gt;&lt;font style=&quot;font-size: 13px;&quot;&gt;Выход&lt;br&gt;&lt;/font&gt;&lt;/font&gt;sendToServer()&lt;/font&gt;&lt;font face=&quot;Times New Roman&quot; style=&quot;font-size: 15px;&quot;&gt;&lt;br&gt;&lt;/font&gt;" style="rounded=1;whiteSpace=wrap;html=1;arcSize=50;" vertex="1" parent="1">
          <mxGeometry x="200" y="720" width="160" height="60" as="geometry" />
        </mxCell>
        <mxCell id="6lmwBm1dGyEf7iBIFJtt-4" value="" style="edgeStyle=orthogonalEdgeStyle;rounded=0;orthogonalLoop=1;jettySize=auto;html=1;endArrow=open;endFill=0;" edge="1" parent="1" source="6lmwBm1dGyEf7iBIFJtt-6">
          <mxGeometry relative="1" as="geometry">
            <mxPoint x="280" y="219.9999999999999" as="targetPoint" />
          </mxGeometry>
        </mxCell>
        <mxCell id="6lmwBm1dGyEf7iBIFJtt-42" style="edgeStyle=orthogonalEdgeStyle;rounded=0;orthogonalLoop=1;jettySize=auto;html=1;endArrow=open;endFill=0;entryX=0.5;entryY=0;entryDx=0;entryDy=0;" edge="1" parent="1" source="6lmwBm1dGyEf7iBIFJtt-6" target="6lmwBm1dGyEf7iBIFJtt-41">
          <mxGeometry relative="1" as="geometry">
            <mxPoint x="280" y="300" as="targetPoint" />
            <Array as="points">
              <mxPoint x="670" y="130" />
            </Array>
          </mxGeometry>
        </mxCell>
        <mxCell id="6lmwBm1dGyEf7iBIFJtt-6" value="&lt;font face=&quot;Times New Roman&quot;&gt;&lt;span style=&quot;font-size: 13px;&quot;&gt;isPlayed and&lt;br&gt;&lt;/span&gt;canBePlayed (cardToPlay,&amp;nbsp; &amp;nbsp;main card)&lt;/font&gt;" style="rhombus;whiteSpace=wrap;html=1;" vertex="1" parent="1">
          <mxGeometry x="200" y="88" width="160" height="80" as="geometry" />
        </mxCell>
        <mxCell id="6lmwBm1dGyEf7iBIFJtt-9" value="Да" style="text;html=1;align=center;verticalAlign=middle;resizable=0;points=[];autosize=1;strokeColor=none;fillColor=none;" vertex="1" parent="1">
          <mxGeometry x="360" y="100" width="40" height="30" as="geometry" />
        </mxCell>
        <mxCell id="6lmwBm1dGyEf7iBIFJtt-10" value="Нет" style="text;html=1;align=center;verticalAlign=middle;resizable=0;points=[];autosize=1;strokeColor=none;fillColor=none;" vertex="1" parent="1">
          <mxGeometry x="270" y="168" width="40" height="30" as="geometry" />
        </mxCell>
        <mxCell id="6lmwBm1dGyEf7iBIFJtt-12" style="edgeStyle=orthogonalEdgeStyle;rounded=0;orthogonalLoop=1;jettySize=auto;html=1;exitX=0.5;exitY=1;exitDx=0;exitDy=0;" edge="1" parent="1">
          <mxGeometry relative="1" as="geometry">
            <mxPoint x="670" y="275" as="sourcePoint" />
            <mxPoint x="670" y="275" as="targetPoint" />
          </mxGeometry>
        </mxCell>
        <mxCell id="6lmwBm1dGyEf7iBIFJtt-13" style="edgeStyle=orthogonalEdgeStyle;rounded=0;orthogonalLoop=1;jettySize=auto;html=1;entryX=0.5;entryY=0;entryDx=0;entryDy=0;endArrow=open;endFill=0;exitX=0.5;exitY=1;exitDx=0;exitDy=0;" edge="1" parent="1" source="6lmwBm1dGyEf7iBIFJtt-2" target="6lmwBm1dGyEf7iBIFJtt-6">
          <mxGeometry relative="1" as="geometry">
            <mxPoint x="280" y="159.9999999999999" as="sourcePoint" />
          </mxGeometry>
        </mxCell>
        <mxCell id="6lmwBm1dGyEf7iBIFJtt-15" value="" style="edgeStyle=orthogonalEdgeStyle;rounded=0;orthogonalLoop=1;jettySize=auto;html=1;endArrow=none;endFill=0;exitX=0.5;exitY=1;exitDx=0;exitDy=0;entryX=0.5;entryY=0;entryDx=0;entryDy=0;" edge="1" parent="1" target="6lmwBm1dGyEf7iBIFJtt-3">
          <mxGeometry relative="1" as="geometry">
            <mxPoint x="280" y="279.9999999999999" as="sourcePoint" />
            <mxPoint x="330" y="650" as="targetPoint" />
          </mxGeometry>
        </mxCell>
        <mxCell id="6lmwBm1dGyEf7iBIFJtt-23" style="edgeStyle=orthogonalEdgeStyle;rounded=0;orthogonalLoop=1;jettySize=auto;html=1;exitX=0.5;exitY=1;exitDx=0;exitDy=0;" edge="1" parent="1">
          <mxGeometry relative="1" as="geometry">
            <mxPoint x="670" y="505" as="sourcePoint" />
            <mxPoint x="670" y="505" as="targetPoint" />
          </mxGeometry>
        </mxCell>
        <mxCell id="6lmwBm1dGyEf7iBIFJtt-47" value="" style="edgeStyle=orthogonalEdgeStyle;rounded=0;orthogonalLoop=1;jettySize=auto;html=1;endArrow=none;endFill=0;" edge="1" parent="1" source="6lmwBm1dGyEf7iBIFJtt-41" target="6lmwBm1dGyEf7iBIFJtt-46">
          <mxGeometry relative="1" as="geometry" />
        </mxCell>
        <mxCell id="6lmwBm1dGyEf7iBIFJtt-41" value="&lt;font face=&quot;Times New Roman&quot;&gt;&lt;span style=&quot;font-size: 13px;&quot;&gt;delFromPl(cardToPlay)&lt;/span&gt;&lt;/font&gt;" style="shape=process;whiteSpace=wrap;html=1;backgroundOutline=1;" vertex="1" parent="1">
          <mxGeometry x="590" y="220" width="160" height="60" as="geometry" />
        </mxCell>
        <mxCell id="6lmwBm1dGyEf7iBIFJtt-50" value="" style="edgeStyle=orthogonalEdgeStyle;rounded=0;orthogonalLoop=1;jettySize=auto;html=1;endArrow=none;endFill=0;" edge="1" parent="1" source="6lmwBm1dGyEf7iBIFJtt-46" target="6lmwBm1dGyEf7iBIFJtt-48">
          <mxGeometry relative="1" as="geometry" />
        </mxCell>
        <mxCell id="6lmwBm1dGyEf7iBIFJtt-46" value="&lt;font face=&quot;Times New Roman&quot;&gt;&lt;span style=&quot;font-size: 13px;&quot;&gt;renewPos()&lt;/span&gt;&lt;/font&gt;" style="shape=process;whiteSpace=wrap;html=1;backgroundOutline=1;" vertex="1" parent="1">
          <mxGeometry x="590" y="320" width="160" height="60" as="geometry" />
        </mxCell>
        <mxCell id="6lmwBm1dGyEf7iBIFJtt-51" value="" style="edgeStyle=orthogonalEdgeStyle;rounded=0;orthogonalLoop=1;jettySize=auto;html=1;endArrow=none;endFill=0;" edge="1" parent="1" source="6lmwBm1dGyEf7iBIFJtt-48" target="6lmwBm1dGyEf7iBIFJtt-49">
          <mxGeometry relative="1" as="geometry" />
        </mxCell>
        <mxCell id="6lmwBm1dGyEf7iBIFJtt-48" value="&lt;font style=&quot;font-size: 13px;&quot; face=&quot;Times New Roman&quot;&gt;st=str(numberOfPl)+&lt;br&gt;str(cardToPlay.color)+&#39;/&#39;+ str(cardToPlay.value)&amp;nbsp;&lt;/font&gt;" style="rounded=0;whiteSpace=wrap;html=1;" vertex="1" parent="1">
          <mxGeometry x="590" y="410" width="160" height="60" as="geometry" />
        </mxCell>
        <mxCell id="6lmwBm1dGyEf7iBIFJtt-53" value="" style="edgeStyle=orthogonalEdgeStyle;rounded=0;orthogonalLoop=1;jettySize=auto;html=1;endArrow=none;endFill=0;" edge="1" parent="1" source="6lmwBm1dGyEf7iBIFJtt-49" target="6lmwBm1dGyEf7iBIFJtt-52">
          <mxGeometry relative="1" as="geometry" />
        </mxCell>
        <mxCell id="6lmwBm1dGyEf7iBIFJtt-49" value="&lt;font face=&quot;Times New Roman&quot;&gt;&lt;span style=&quot;font-size: 13px;&quot;&gt;sock.send(st.encode()+ str(len(myCards)). encode())&lt;/span&gt;&lt;/font&gt;" style="shape=process;whiteSpace=wrap;html=1;backgroundOutline=1;" vertex="1" parent="1">
          <mxGeometry x="590" y="500" width="160" height="60" as="geometry" />
        </mxCell>
        <mxCell id="6lmwBm1dGyEf7iBIFJtt-62" style="edgeStyle=orthogonalEdgeStyle;rounded=0;orthogonalLoop=1;jettySize=auto;html=1;endArrow=open;endFill=0;" edge="1" parent="1" source="6lmwBm1dGyEf7iBIFJtt-52">
          <mxGeometry relative="1" as="geometry">
            <mxPoint x="280" y="700" as="targetPoint" />
            <Array as="points">
              <mxPoint x="670" y="700" />
            </Array>
          </mxGeometry>
        </mxCell>
        <mxCell id="6lmwBm1dGyEf7iBIFJtt-52" value="&lt;font face=&quot;Times New Roman&quot;&gt;&lt;span style=&quot;font-size: 13px;&quot;&gt;isMyPut = False&lt;/span&gt;&lt;/font&gt;" style="rounded=0;whiteSpace=wrap;html=1;" vertex="1" parent="1">
          <mxGeometry x="590" y="585" width="160" height="60" as="geometry" />
        </mxCell>
        <mxCell id="6lmwBm1dGyEf7iBIFJtt-57" style="edgeStyle=orthogonalEdgeStyle;rounded=0;orthogonalLoop=1;jettySize=auto;html=1;entryX=0.5;entryY=0;entryDx=0;entryDy=0;endArrow=open;endFill=0;" edge="1" parent="1" source="6lmwBm1dGyEf7iBIFJtt-54" target="6lmwBm1dGyEf7iBIFJtt-56">
          <mxGeometry relative="1" as="geometry" />
        </mxCell>
        <mxCell id="6lmwBm1dGyEf7iBIFJtt-58" value="" style="edgeStyle=orthogonalEdgeStyle;rounded=0;orthogonalLoop=1;jettySize=auto;html=1;endArrow=open;endFill=0;" edge="1" parent="1" source="6lmwBm1dGyEf7iBIFJtt-54" target="6lmwBm1dGyEf7iBIFJtt-55">
          <mxGeometry relative="1" as="geometry" />
        </mxCell>
        <mxCell id="6lmwBm1dGyEf7iBIFJtt-54" value="&lt;font face=&quot;Times New Roman&quot;&gt;&lt;span style=&quot;font-size: 13px;&quot;&gt;isIncCards&lt;/span&gt;&lt;/font&gt;" style="rhombus;whiteSpace=wrap;html=1;" vertex="1" parent="1">
          <mxGeometry x="200" y="220" width="160" height="80" as="geometry" />
        </mxCell>
        <mxCell id="6lmwBm1dGyEf7iBIFJtt-55" value="&lt;font face=&quot;Times New Roman&quot;&gt;&lt;span style=&quot;font-size: 13px;&quot;&gt;sock.send(&#39;nothing&#39;. encode())&lt;/span&gt;&lt;/font&gt;" style="shape=process;whiteSpace=wrap;html=1;backgroundOutline=1;" vertex="1" parent="1">
          <mxGeometry x="200" y="330" width="160" height="60" as="geometry" />
        </mxCell>
        <mxCell id="6lmwBm1dGyEf7iBIFJtt-61" style="edgeStyle=orthogonalEdgeStyle;rounded=0;orthogonalLoop=1;jettySize=auto;html=1;endArrow=open;endFill=0;" edge="1" parent="1" source="6lmwBm1dGyEf7iBIFJtt-56">
          <mxGeometry relative="1" as="geometry">
            <mxPoint x="280" y="430" as="targetPoint" />
            <Array as="points">
              <mxPoint x="470" y="430" />
            </Array>
          </mxGeometry>
        </mxCell>
        <mxCell id="6lmwBm1dGyEf7iBIFJtt-56" value="&lt;font face=&quot;Times New Roman&quot;&gt;&lt;span style=&quot;font-size: 13px;&quot;&gt;sock.send(&#39;putting&#39;. encode())&lt;/span&gt;&lt;/font&gt;" style="shape=process;whiteSpace=wrap;html=1;backgroundOutline=1;" vertex="1" parent="1">
          <mxGeometry x="390" y="330" width="160" height="60" as="geometry" />
        </mxCell>
        <mxCell id="6lmwBm1dGyEf7iBIFJtt-59" value="Нет" style="text;html=1;align=center;verticalAlign=middle;resizable=0;points=[];autosize=1;strokeColor=none;fillColor=none;" vertex="1" parent="1">
          <mxGeometry x="280" y="298" width="40" height="30" as="geometry" />
        </mxCell>
        <mxCell id="6lmwBm1dGyEf7iBIFJtt-60" value="Да" style="text;html=1;align=center;verticalAlign=middle;resizable=0;points=[];autosize=1;strokeColor=none;fillColor=none;" vertex="1" parent="1">
          <mxGeometry x="360" y="238" width="40" height="30" as="geometry" />
        </mxCell>
      </root>
    </mxGraphModel>
  </diagram>
  <diagram id="KtQ8ETixlos3kpK2pZPi" name="Страница 7">
    <mxGraphModel dx="1434" dy="806" grid="1" gridSize="10" guides="1" tooltips="1" connect="1" arrows="1" fold="1" page="1" pageScale="1" pageWidth="827" pageHeight="1169" math="0" shadow="0">
      <root>
        <mxCell id="0" />
        <mxCell id="1" parent="0" />
        <mxCell id="DpynU4UAw818GQ7pQlGx-9" value="" style="edgeStyle=orthogonalEdgeStyle;rounded=0;orthogonalLoop=1;jettySize=auto;html=1;endArrow=none;endFill=0;" edge="1" parent="1" source="DpynU4UAw818GQ7pQlGx-1" target="DpynU4UAw818GQ7pQlGx-2">
          <mxGeometry relative="1" as="geometry" />
        </mxCell>
        <mxCell id="DpynU4UAw818GQ7pQlGx-1" value="&lt;font style=&quot;font-size: 13px;&quot; face=&quot;Times New Roman&quot;&gt;Проверка нажата ли &lt;br&gt;кнопка &quot;Уно&quot;&lt;/font&gt;" style="rounded=1;whiteSpace=wrap;html=1;arcSize=50;" vertex="1" parent="1">
          <mxGeometry x="360" y="20" width="160" height="60" as="geometry" />
        </mxCell>
        <mxCell id="DpynU4UAw818GQ7pQlGx-6" style="edgeStyle=orthogonalEdgeStyle;rounded=0;orthogonalLoop=1;jettySize=auto;html=1;entryX=0.5;entryY=0;entryDx=0;entryDy=0;endArrow=open;endFill=0;" edge="1" parent="1" source="DpynU4UAw818GQ7pQlGx-2" target="DpynU4UAw818GQ7pQlGx-5">
          <mxGeometry relative="1" as="geometry" />
        </mxCell>
        <mxCell id="DpynU4UAw818GQ7pQlGx-13" value="" style="edgeStyle=orthogonalEdgeStyle;rounded=0;orthogonalLoop=1;jettySize=auto;html=1;endArrow=open;endFill=0;" edge="1" parent="1" source="DpynU4UAw818GQ7pQlGx-2" target="DpynU4UAw818GQ7pQlGx-10">
          <mxGeometry relative="1" as="geometry" />
        </mxCell>
        <mxCell id="DpynU4UAw818GQ7pQlGx-2" value="&lt;font style=&quot;font-size: 12px;&quot; face=&quot;Times New Roman&quot;&gt;Конец игры или&amp;nbsp; &amp;nbsp; &amp;nbsp; &amp;nbsp; &amp;nbsp; &amp;nbsp;осталась одна карта&lt;/font&gt;" style="rhombus;whiteSpace=wrap;html=1;" vertex="1" parent="1">
          <mxGeometry x="360" y="110" width="160" height="80" as="geometry" />
        </mxCell>
        <mxCell id="DpynU4UAw818GQ7pQlGx-5" value="&lt;font face=&quot;Times New Roman&quot;&gt;&lt;span style=&quot;font-size: 13px;&quot;&gt;Конец&lt;/span&gt;&lt;/font&gt;" style="rounded=1;whiteSpace=wrap;html=1;arcSize=50;" vertex="1" parent="1">
          <mxGeometry x="190" y="350" width="160" height="60" as="geometry" />
        </mxCell>
        <mxCell id="DpynU4UAw818GQ7pQlGx-7" value="&lt;font style=&quot;font-size: 14px;&quot; face=&quot;Times New Roman&quot;&gt;Да&lt;/font&gt;" style="text;html=1;align=center;verticalAlign=middle;resizable=0;points=[];autosize=1;strokeColor=none;fillColor=none;" vertex="1" parent="1">
          <mxGeometry x="320" y="120" width="40" height="30" as="geometry" />
        </mxCell>
        <mxCell id="DpynU4UAw818GQ7pQlGx-16" style="edgeStyle=orthogonalEdgeStyle;rounded=0;orthogonalLoop=1;jettySize=auto;html=1;endArrow=open;endFill=0;" edge="1" parent="1" source="DpynU4UAw818GQ7pQlGx-10">
          <mxGeometry relative="1" as="geometry">
            <mxPoint x="440" y="210" as="targetPoint" />
            <Array as="points">
              <mxPoint x="350" y="270" />
              <mxPoint x="350" y="210" />
            </Array>
          </mxGeometry>
        </mxCell>
        <mxCell id="DpynU4UAw818GQ7pQlGx-19" value="" style="edgeStyle=orthogonalEdgeStyle;rounded=0;orthogonalLoop=1;jettySize=auto;html=1;endArrow=open;endFill=0;" edge="1" parent="1" source="DpynU4UAw818GQ7pQlGx-10" target="DpynU4UAw818GQ7pQlGx-18">
          <mxGeometry relative="1" as="geometry" />
        </mxCell>
        <mxCell id="DpynU4UAw818GQ7pQlGx-10" value="&lt;font style=&quot;font-size: 12px;&quot; face=&quot;Times New Roman&quot;&gt;Выполнен ход&amp;nbsp; &amp;nbsp;предпоследней картой&lt;/font&gt;" style="rhombus;whiteSpace=wrap;html=1;" vertex="1" parent="1">
          <mxGeometry x="360" y="230" width="160" height="80" as="geometry" />
        </mxCell>
        <mxCell id="DpynU4UAw818GQ7pQlGx-15" value="&lt;font style=&quot;font-size: 14px;&quot; face=&quot;Times New Roman&quot;&gt;Нет&lt;/font&gt;" style="text;html=1;align=center;verticalAlign=middle;resizable=0;points=[];autosize=1;strokeColor=none;fillColor=none;" vertex="1" parent="1">
          <mxGeometry x="430" y="180" width="50" height="30" as="geometry" />
        </mxCell>
        <mxCell id="DpynU4UAw818GQ7pQlGx-17" value="&lt;font style=&quot;font-size: 14px;&quot; face=&quot;Times New Roman&quot;&gt;Нет&lt;/font&gt;" style="text;html=1;align=center;verticalAlign=middle;resizable=0;points=[];autosize=1;strokeColor=none;fillColor=none;" vertex="1" parent="1">
          <mxGeometry x="310" y="210" width="50" height="30" as="geometry" />
        </mxCell>
        <mxCell id="DpynU4UAw818GQ7pQlGx-21" value="" style="edgeStyle=orthogonalEdgeStyle;rounded=0;orthogonalLoop=1;jettySize=auto;html=1;endArrow=open;endFill=0;" edge="1" parent="1" source="DpynU4UAw818GQ7pQlGx-18" target="DpynU4UAw818GQ7pQlGx-20">
          <mxGeometry relative="1" as="geometry" />
        </mxCell>
        <mxCell id="DpynU4UAw818GQ7pQlGx-27" style="edgeStyle=orthogonalEdgeStyle;rounded=0;orthogonalLoop=1;jettySize=auto;html=1;endArrow=open;endFill=0;" edge="1" parent="1" source="DpynU4UAw818GQ7pQlGx-18">
          <mxGeometry relative="1" as="geometry">
            <mxPoint x="580" y="380" as="targetPoint" />
          </mxGeometry>
        </mxCell>
        <mxCell id="DpynU4UAw818GQ7pQlGx-18" value="&lt;font face=&quot;Times New Roman&quot;&gt;Была нажата кнопка Уно&lt;/font&gt;" style="rhombus;whiteSpace=wrap;html=1;" vertex="1" parent="1">
          <mxGeometry x="360" y="340" width="160" height="80" as="geometry" />
        </mxCell>
        <mxCell id="DpynU4UAw818GQ7pQlGx-26" style="edgeStyle=orthogonalEdgeStyle;rounded=0;orthogonalLoop=1;jettySize=auto;html=1;endArrow=open;endFill=0;" edge="1" parent="1" source="DpynU4UAw818GQ7pQlGx-20">
          <mxGeometry relative="1" as="geometry">
            <mxPoint x="440" y="90" as="targetPoint" />
            <Array as="points">
              <mxPoint x="580" y="480" />
              <mxPoint x="580" y="90" />
              <mxPoint x="440" y="90" />
            </Array>
          </mxGeometry>
        </mxCell>
        <mxCell id="DpynU4UAw818GQ7pQlGx-20" value="&lt;font style=&quot;font-size: 14px;&quot; face=&quot;Times New Roman&quot;&gt;Игрок набирает 2 карты из колоды&lt;/font&gt;" style="rounded=0;whiteSpace=wrap;html=1;" vertex="1" parent="1">
          <mxGeometry x="360" y="450" width="160" height="60" as="geometry" />
        </mxCell>
        <mxCell id="DpynU4UAw818GQ7pQlGx-22" value="&lt;font style=&quot;font-size: 14px;&quot; face=&quot;Times New Roman&quot;&gt;Да&lt;/font&gt;" style="text;html=1;align=center;verticalAlign=middle;resizable=0;points=[];autosize=1;strokeColor=none;fillColor=none;" vertex="1" parent="1">
          <mxGeometry x="530" y="350" width="40" height="30" as="geometry" />
        </mxCell>
        <mxCell id="DpynU4UAw818GQ7pQlGx-23" value="&lt;font style=&quot;font-size: 14px;&quot; face=&quot;Times New Roman&quot;&gt;Нет&lt;/font&gt;" style="text;html=1;align=center;verticalAlign=middle;resizable=0;points=[];autosize=1;strokeColor=none;fillColor=none;" vertex="1" parent="1">
          <mxGeometry x="390" y="420" width="50" height="30" as="geometry" />
        </mxCell>
      </root>
    </mxGraphModel>
  </diagram>
  <diagram id="9fSDlK9A1hUNFAS91GWn" name="Страница 8">
    <mxGraphModel dx="1687" dy="948" grid="1" gridSize="10" guides="1" tooltips="1" connect="1" arrows="1" fold="1" page="1" pageScale="1" pageWidth="827" pageHeight="1169" math="0" shadow="0">
      <root>
        <mxCell id="0" />
        <mxCell id="1" parent="0" />
        <mxCell id="_Nyd8D40gi5yL1eJk_Vz-1" value="" style="edgeStyle=orthogonalEdgeStyle;rounded=0;orthogonalLoop=1;jettySize=auto;html=1;endArrow=none;endFill=0;" edge="1" parent="1" source="_Nyd8D40gi5yL1eJk_Vz-2" target="_Nyd8D40gi5yL1eJk_Vz-5">
          <mxGeometry relative="1" as="geometry" />
        </mxCell>
        <mxCell id="_Nyd8D40gi5yL1eJk_Vz-2" value="&lt;font face=&quot;Times New Roman&quot;&gt;&lt;span style=&quot;font-size: 13px;&quot;&gt;Выбрал ли игрок набор карты из колоды&lt;/span&gt;&lt;/font&gt;" style="rounded=1;whiteSpace=wrap;html=1;arcSize=50;" vertex="1" parent="1">
          <mxGeometry x="360" y="20" width="160" height="60" as="geometry" />
        </mxCell>
        <mxCell id="_Nyd8D40gi5yL1eJk_Vz-3" style="edgeStyle=orthogonalEdgeStyle;rounded=0;orthogonalLoop=1;jettySize=auto;html=1;entryX=0.5;entryY=0;entryDx=0;entryDy=0;endArrow=open;endFill=0;" edge="1" parent="1" source="_Nyd8D40gi5yL1eJk_Vz-5" target="_Nyd8D40gi5yL1eJk_Vz-6">
          <mxGeometry relative="1" as="geometry" />
        </mxCell>
        <mxCell id="_Nyd8D40gi5yL1eJk_Vz-4" value="" style="edgeStyle=orthogonalEdgeStyle;rounded=0;orthogonalLoop=1;jettySize=auto;html=1;endArrow=open;endFill=0;" edge="1" parent="1" source="_Nyd8D40gi5yL1eJk_Vz-5" target="_Nyd8D40gi5yL1eJk_Vz-10">
          <mxGeometry relative="1" as="geometry" />
        </mxCell>
        <mxCell id="_Nyd8D40gi5yL1eJk_Vz-5" value="&lt;font style=&quot;font-size: 12px;&quot; face=&quot;Times New Roman&quot;&gt;Конец игры&amp;nbsp;&lt;/font&gt;" style="rhombus;whiteSpace=wrap;html=1;" vertex="1" parent="1">
          <mxGeometry x="360" y="110" width="160" height="80" as="geometry" />
        </mxCell>
        <mxCell id="_Nyd8D40gi5yL1eJk_Vz-6" value="&lt;font face=&quot;Times New Roman&quot;&gt;&lt;span style=&quot;font-size: 13px;&quot;&gt;Конец&lt;/span&gt;&lt;/font&gt;" style="rounded=1;whiteSpace=wrap;html=1;arcSize=50;" vertex="1" parent="1">
          <mxGeometry x="190" y="350" width="160" height="60" as="geometry" />
        </mxCell>
        <mxCell id="_Nyd8D40gi5yL1eJk_Vz-7" value="&lt;font style=&quot;font-size: 14px;&quot; face=&quot;Times New Roman&quot;&gt;Да&lt;/font&gt;" style="text;html=1;align=center;verticalAlign=middle;resizable=0;points=[];autosize=1;strokeColor=none;fillColor=none;" vertex="1" parent="1">
          <mxGeometry x="320" y="120" width="40" height="30" as="geometry" />
        </mxCell>
        <mxCell id="_Nyd8D40gi5yL1eJk_Vz-8" style="edgeStyle=orthogonalEdgeStyle;rounded=0;orthogonalLoop=1;jettySize=auto;html=1;endArrow=open;endFill=0;" edge="1" parent="1" source="_Nyd8D40gi5yL1eJk_Vz-10">
          <mxGeometry relative="1" as="geometry">
            <mxPoint x="440" y="210" as="targetPoint" />
            <Array as="points">
              <mxPoint x="350" y="270" />
              <mxPoint x="350" y="210" />
            </Array>
          </mxGeometry>
        </mxCell>
        <mxCell id="_Nyd8D40gi5yL1eJk_Vz-9" value="" style="edgeStyle=orthogonalEdgeStyle;rounded=0;orthogonalLoop=1;jettySize=auto;html=1;endArrow=open;endFill=0;" edge="1" parent="1" source="_Nyd8D40gi5yL1eJk_Vz-10" target="_Nyd8D40gi5yL1eJk_Vz-15">
          <mxGeometry relative="1" as="geometry" />
        </mxCell>
        <mxCell id="_Nyd8D40gi5yL1eJk_Vz-10" value="&lt;font style=&quot;font-size: 12px;&quot; face=&quot;Times New Roman&quot;&gt;Игрок нажал по экрану&lt;/font&gt;" style="rhombus;whiteSpace=wrap;html=1;" vertex="1" parent="1">
          <mxGeometry x="360" y="230" width="160" height="80" as="geometry" />
        </mxCell>
        <mxCell id="_Nyd8D40gi5yL1eJk_Vz-11" value="&lt;font style=&quot;font-size: 14px;&quot; face=&quot;Times New Roman&quot;&gt;Нет&lt;/font&gt;" style="text;html=1;align=center;verticalAlign=middle;resizable=0;points=[];autosize=1;strokeColor=none;fillColor=none;" vertex="1" parent="1">
          <mxGeometry x="430" y="180" width="50" height="30" as="geometry" />
        </mxCell>
        <mxCell id="_Nyd8D40gi5yL1eJk_Vz-12" value="&lt;font style=&quot;font-size: 14px;&quot; face=&quot;Times New Roman&quot;&gt;Нет&lt;/font&gt;" style="text;html=1;align=center;verticalAlign=middle;resizable=0;points=[];autosize=1;strokeColor=none;fillColor=none;" vertex="1" parent="1">
          <mxGeometry x="310" y="210" width="50" height="30" as="geometry" />
        </mxCell>
        <mxCell id="_Nyd8D40gi5yL1eJk_Vz-13" value="" style="edgeStyle=orthogonalEdgeStyle;rounded=0;orthogonalLoop=1;jettySize=auto;html=1;endArrow=open;endFill=0;" edge="1" parent="1" source="_Nyd8D40gi5yL1eJk_Vz-15" target="_Nyd8D40gi5yL1eJk_Vz-17">
          <mxGeometry relative="1" as="geometry" />
        </mxCell>
        <mxCell id="_Nyd8D40gi5yL1eJk_Vz-14" style="edgeStyle=orthogonalEdgeStyle;rounded=0;orthogonalLoop=1;jettySize=auto;html=1;endArrow=open;endFill=0;" edge="1" parent="1" source="_Nyd8D40gi5yL1eJk_Vz-15">
          <mxGeometry relative="1" as="geometry">
            <mxPoint x="580" y="380" as="targetPoint" />
          </mxGeometry>
        </mxCell>
        <mxCell id="_Nyd8D40gi5yL1eJk_Vz-15" value="&lt;font face=&quot;Times New Roman&quot;&gt;Игрок нажал по колоде&lt;/font&gt;" style="rhombus;whiteSpace=wrap;html=1;" vertex="1" parent="1">
          <mxGeometry x="360" y="340" width="160" height="80" as="geometry" />
        </mxCell>
        <mxCell id="_Nyd8D40gi5yL1eJk_Vz-16" style="edgeStyle=orthogonalEdgeStyle;rounded=0;orthogonalLoop=1;jettySize=auto;html=1;endArrow=open;endFill=0;" edge="1" parent="1" source="_Nyd8D40gi5yL1eJk_Vz-17">
          <mxGeometry relative="1" as="geometry">
            <mxPoint x="440" y="90" as="targetPoint" />
            <Array as="points">
              <mxPoint x="580" y="480" />
              <mxPoint x="580" y="90" />
              <mxPoint x="440" y="90" />
            </Array>
          </mxGeometry>
        </mxCell>
        <mxCell id="_Nyd8D40gi5yL1eJk_Vz-17" value="&lt;font style=&quot;font-size: 14px;&quot; face=&quot;Times New Roman&quot;&gt;Игрок набирает 1 карту из колоды&lt;/font&gt;" style="rounded=0;whiteSpace=wrap;html=1;" vertex="1" parent="1">
          <mxGeometry x="360" y="450" width="160" height="60" as="geometry" />
        </mxCell>
        <mxCell id="_Nyd8D40gi5yL1eJk_Vz-18" value="&lt;font style=&quot;font-size: 14px;&quot; face=&quot;Times New Roman&quot;&gt;Да&lt;/font&gt;" style="text;html=1;align=center;verticalAlign=middle;resizable=0;points=[];autosize=1;strokeColor=none;fillColor=none;" vertex="1" parent="1">
          <mxGeometry x="410" y="420" width="40" height="30" as="geometry" />
        </mxCell>
        <mxCell id="_Nyd8D40gi5yL1eJk_Vz-19" value="&lt;font style=&quot;font-size: 14px;&quot; face=&quot;Times New Roman&quot;&gt;Нет&lt;/font&gt;" style="text;html=1;align=center;verticalAlign=middle;resizable=0;points=[];autosize=1;strokeColor=none;fillColor=none;" vertex="1" parent="1">
          <mxGeometry x="520" y="360" width="50" height="30" as="geometry" />
        </mxCell>
      </root>
    </mxGraphModel>
  </diagram>
  <diagram id="6WvymS2Em-yX6Q8UkxEo" name="Страница 9">
    <mxGraphModel dx="2049" dy="1151" grid="1" gridSize="10" guides="1" tooltips="1" connect="1" arrows="1" fold="1" page="1" pageScale="1" pageWidth="827" pageHeight="1169" math="0" shadow="0">
      <root>
        <mxCell id="0" />
        <mxCell id="1" parent="0" />
        <mxCell id="sGrq0Wyo-_HN1Jz06iX3-1" value="" style="edgeStyle=orthogonalEdgeStyle;rounded=0;orthogonalLoop=1;jettySize=auto;html=1;endArrow=none;endFill=0;" edge="1" parent="1" source="sGrq0Wyo-_HN1Jz06iX3-2" target="sGrq0Wyo-_HN1Jz06iX3-5">
          <mxGeometry relative="1" as="geometry" />
        </mxCell>
        <mxCell id="sGrq0Wyo-_HN1Jz06iX3-2" value="&lt;font face=&quot;Times New Roman&quot;&gt;&lt;span style=&quot;font-size: 13px;&quot;&gt;Проверка на концовку игры&lt;/span&gt;&lt;/font&gt;" style="rounded=1;whiteSpace=wrap;html=1;arcSize=50;" vertex="1" parent="1">
          <mxGeometry x="360" y="20" width="160" height="60" as="geometry" />
        </mxCell>
        <mxCell id="sGrq0Wyo-_HN1Jz06iX3-3" style="edgeStyle=orthogonalEdgeStyle;rounded=0;orthogonalLoop=1;jettySize=auto;html=1;entryX=0.5;entryY=0;entryDx=0;entryDy=0;endArrow=open;endFill=0;" edge="1" parent="1" source="sGrq0Wyo-_HN1Jz06iX3-5" target="sGrq0Wyo-_HN1Jz06iX3-6">
          <mxGeometry relative="1" as="geometry" />
        </mxCell>
        <mxCell id="sGrq0Wyo-_HN1Jz06iX3-4" value="" style="edgeStyle=orthogonalEdgeStyle;rounded=0;orthogonalLoop=1;jettySize=auto;html=1;endArrow=open;endFill=0;" edge="1" parent="1" source="sGrq0Wyo-_HN1Jz06iX3-5" target="sGrq0Wyo-_HN1Jz06iX3-10">
          <mxGeometry relative="1" as="geometry" />
        </mxCell>
        <mxCell id="sGrq0Wyo-_HN1Jz06iX3-5" value="&lt;font style=&quot;font-size: 12px;&quot; face=&quot;Times New Roman&quot;&gt;У клиента не осталось &lt;br&gt;карт в руках&lt;/font&gt;" style="rhombus;whiteSpace=wrap;html=1;" vertex="1" parent="1">
          <mxGeometry x="360" y="110" width="160" height="80" as="geometry" />
        </mxCell>
        <mxCell id="sGrq0Wyo-_HN1Jz06iX3-6" value="&lt;font face=&quot;Times New Roman&quot;&gt;&lt;span style=&quot;font-size: 13px;&quot;&gt;Конец&lt;/span&gt;&lt;/font&gt;" style="rounded=1;whiteSpace=wrap;html=1;arcSize=50;" vertex="1" parent="1">
          <mxGeometry x="190" y="350" width="160" height="60" as="geometry" />
        </mxCell>
        <mxCell id="sGrq0Wyo-_HN1Jz06iX3-7" value="&lt;font style=&quot;font-size: 14px;&quot; face=&quot;Times New Roman&quot;&gt;Да&lt;/font&gt;" style="text;html=1;align=center;verticalAlign=middle;resizable=0;points=[];autosize=1;strokeColor=none;fillColor=none;" vertex="1" parent="1">
          <mxGeometry x="320" y="120" width="40" height="30" as="geometry" />
        </mxCell>
        <mxCell id="sGrq0Wyo-_HN1Jz06iX3-8" style="edgeStyle=orthogonalEdgeStyle;rounded=0;orthogonalLoop=1;jettySize=auto;html=1;endArrow=open;endFill=0;" edge="1" parent="1" source="sGrq0Wyo-_HN1Jz06iX3-10">
          <mxGeometry relative="1" as="geometry">
            <mxPoint x="440" y="100" as="targetPoint" />
            <Array as="points">
              <mxPoint x="560" y="270" />
              <mxPoint x="560" y="100" />
              <mxPoint x="440" y="100" />
            </Array>
          </mxGeometry>
        </mxCell>
        <mxCell id="sGrq0Wyo-_HN1Jz06iX3-20" style="edgeStyle=orthogonalEdgeStyle;rounded=0;orthogonalLoop=1;jettySize=auto;html=1;endArrow=open;endFill=0;" edge="1" parent="1" source="sGrq0Wyo-_HN1Jz06iX3-10">
          <mxGeometry relative="1" as="geometry">
            <mxPoint x="270" y="270" as="targetPoint" />
          </mxGeometry>
        </mxCell>
        <mxCell id="sGrq0Wyo-_HN1Jz06iX3-10" value="&lt;font style=&quot;font-size: 12px;&quot; face=&quot;Times New Roman&quot;&gt;У соперника не &lt;br&gt;осталось &lt;br&gt;карт в руках&lt;/font&gt;" style="rhombus;whiteSpace=wrap;html=1;" vertex="1" parent="1">
          <mxGeometry x="360" y="230" width="160" height="80" as="geometry" />
        </mxCell>
        <mxCell id="sGrq0Wyo-_HN1Jz06iX3-11" value="&lt;font style=&quot;font-size: 14px;&quot; face=&quot;Times New Roman&quot;&gt;Нет&lt;/font&gt;" style="text;html=1;align=center;verticalAlign=middle;resizable=0;points=[];autosize=1;strokeColor=none;fillColor=none;" vertex="1" parent="1">
          <mxGeometry x="430" y="190" width="50" height="30" as="geometry" />
        </mxCell>
        <mxCell id="sGrq0Wyo-_HN1Jz06iX3-12" value="&lt;font style=&quot;font-size: 14px;&quot; face=&quot;Times New Roman&quot;&gt;Нет&lt;/font&gt;" style="text;html=1;align=center;verticalAlign=middle;resizable=0;points=[];autosize=1;strokeColor=none;fillColor=none;" vertex="1" parent="1">
          <mxGeometry x="510" y="240" width="50" height="30" as="geometry" />
        </mxCell>
        <mxCell id="sGrq0Wyo-_HN1Jz06iX3-22" value="&lt;font style=&quot;font-size: 14px;&quot; face=&quot;Times New Roman&quot;&gt;Да&lt;/font&gt;" style="text;html=1;align=center;verticalAlign=middle;resizable=0;points=[];autosize=1;strokeColor=none;fillColor=none;" vertex="1" parent="1">
          <mxGeometry x="290" y="240" width="40" height="30" as="geometry" />
        </mxCell>
      </root>
    </mxGraphModel>
  </diagram>
  <diagram id="TowF8WHl4VIUyrbBaRmG" name="Страница 10">
    <mxGraphModel dx="1434" dy="773" grid="1" gridSize="10" guides="1" tooltips="1" connect="1" arrows="1" fold="1" page="1" pageScale="1" pageWidth="827" pageHeight="1169" math="0" shadow="0">
      <root>
        <mxCell id="0" />
        <mxCell id="1" parent="0" />
        <mxCell id="0-uP6cLEwXbnnzDf-fvT-1" value="" style="edgeStyle=orthogonalEdgeStyle;rounded=0;orthogonalLoop=1;jettySize=auto;html=1;endArrow=none;endFill=0;" edge="1" parent="1" source="0-uP6cLEwXbnnzDf-fvT-2">
          <mxGeometry relative="1" as="geometry">
            <mxPoint x="440" y="110" as="targetPoint" />
          </mxGeometry>
        </mxCell>
        <mxCell id="0-uP6cLEwXbnnzDf-fvT-2" value="&lt;font face=&quot;Times New Roman&quot;&gt;&lt;span style=&quot;font-size: 13px;&quot;&gt;Обработка данных, которые пришли на сервер&lt;/span&gt;&lt;/font&gt;" style="rounded=1;whiteSpace=wrap;html=1;arcSize=50;" vertex="1" parent="1">
          <mxGeometry x="360" y="20" width="160" height="60" as="geometry" />
        </mxCell>
        <mxCell id="0-uP6cLEwXbnnzDf-fvT-17" value="" style="edgeStyle=orthogonalEdgeStyle;rounded=0;orthogonalLoop=1;jettySize=auto;html=1;endArrow=open;endFill=0;" edge="1" parent="1" source="0-uP6cLEwXbnnzDf-fvT-14" target="0-uP6cLEwXbnnzDf-fvT-16">
          <mxGeometry relative="1" as="geometry" />
        </mxCell>
        <mxCell id="0-uP6cLEwXbnnzDf-fvT-14" value="&lt;font style=&quot;font-size: 13px;&quot; face=&quot;Times New Roman&quot;&gt;Получение необработанных данных&lt;/font&gt;" style="rounded=0;whiteSpace=wrap;html=1;" vertex="1" parent="1">
          <mxGeometry x="360" y="110" width="160" height="60" as="geometry" />
        </mxCell>
        <mxCell id="0-uP6cLEwXbnnzDf-fvT-15" value="&lt;font face=&quot;Times New Roman&quot;&gt;&lt;span style=&quot;font-size: 13px;&quot;&gt;Конец&lt;/span&gt;&lt;/font&gt;" style="rounded=1;whiteSpace=wrap;html=1;arcSize=50;" vertex="1" parent="1">
          <mxGeometry x="190" y="920" width="160" height="60" as="geometry" />
        </mxCell>
        <mxCell id="0-uP6cLEwXbnnzDf-fvT-21" value="" style="edgeStyle=orthogonalEdgeStyle;rounded=0;orthogonalLoop=1;jettySize=auto;html=1;endArrow=open;endFill=0;" edge="1" parent="1" source="0-uP6cLEwXbnnzDf-fvT-16" target="0-uP6cLEwXbnnzDf-fvT-20">
          <mxGeometry relative="1" as="geometry" />
        </mxCell>
        <mxCell id="0-uP6cLEwXbnnzDf-fvT-16" value="&lt;font style=&quot;font-size: 14px;&quot; face=&quot;Times New Roman&quot;&gt;Пришли новые данные&lt;/font&gt;" style="rhombus;whiteSpace=wrap;html=1;" vertex="1" parent="1">
          <mxGeometry x="360" y="200" width="160" height="80" as="geometry" />
        </mxCell>
        <mxCell id="0-uP6cLEwXbnnzDf-fvT-19" value="&lt;font style=&quot;font-size: 14px;&quot; face=&quot;Times New Roman&quot;&gt;Нет&lt;/font&gt;" style="text;html=1;align=center;verticalAlign=middle;resizable=0;points=[];autosize=1;strokeColor=none;fillColor=none;" vertex="1" parent="1">
          <mxGeometry x="310" y="210" width="50" height="30" as="geometry" />
        </mxCell>
        <mxCell id="0-uP6cLEwXbnnzDf-fvT-25" value="" style="edgeStyle=orthogonalEdgeStyle;rounded=0;orthogonalLoop=1;jettySize=auto;html=1;endArrow=open;endFill=0;" edge="1" parent="1" source="0-uP6cLEwXbnnzDf-fvT-20" target="0-uP6cLEwXbnnzDf-fvT-24">
          <mxGeometry relative="1" as="geometry" />
        </mxCell>
        <mxCell id="0-uP6cLEwXbnnzDf-fvT-29" style="edgeStyle=orthogonalEdgeStyle;rounded=0;orthogonalLoop=1;jettySize=auto;html=1;entryX=0.5;entryY=0;entryDx=0;entryDy=0;endArrow=open;endFill=0;" edge="1" parent="1" source="0-uP6cLEwXbnnzDf-fvT-20" target="0-uP6cLEwXbnnzDf-fvT-28">
          <mxGeometry relative="1" as="geometry" />
        </mxCell>
        <mxCell id="0-uP6cLEwXbnnzDf-fvT-20" value="&lt;font style=&quot;font-size: 14px;&quot; face=&quot;Times New Roman&quot;&gt;Игрок взял карту&lt;br&gt;из колоды&amp;nbsp;&lt;br&gt;&lt;/font&gt;" style="rhombus;whiteSpace=wrap;html=1;" vertex="1" parent="1">
          <mxGeometry x="360" y="310" width="160" height="80" as="geometry" />
        </mxCell>
        <mxCell id="0-uP6cLEwXbnnzDf-fvT-23" value="&lt;font style=&quot;font-size: 14px;&quot; face=&quot;Times New Roman&quot;&gt;Да&lt;/font&gt;" style="text;html=1;align=center;verticalAlign=middle;resizable=0;points=[];autosize=1;strokeColor=none;fillColor=none;" vertex="1" parent="1">
          <mxGeometry x="410" y="280" width="40" height="30" as="geometry" />
        </mxCell>
        <mxCell id="0-uP6cLEwXbnnzDf-fvT-30" style="edgeStyle=orthogonalEdgeStyle;rounded=0;orthogonalLoop=1;jettySize=auto;html=1;endArrow=open;endFill=0;" edge="1" parent="1" source="0-uP6cLEwXbnnzDf-fvT-24">
          <mxGeometry relative="1" as="geometry">
            <mxPoint x="270" y="460" as="targetPoint" />
          </mxGeometry>
        </mxCell>
        <mxCell id="0-uP6cLEwXbnnzDf-fvT-24" value="&lt;font style=&quot;font-size: 13px;&quot; face=&quot;Times New Roman&quot;&gt;Смена хода&lt;/font&gt;" style="rounded=0;whiteSpace=wrap;html=1;" vertex="1" parent="1">
          <mxGeometry x="360" y="430" width="160" height="60" as="geometry" />
        </mxCell>
        <mxCell id="0-uP6cLEwXbnnzDf-fvT-26" value="&lt;font style=&quot;font-size: 14px;&quot; face=&quot;Times New Roman&quot;&gt;Да&lt;/font&gt;" style="text;html=1;align=center;verticalAlign=middle;resizable=0;points=[];autosize=1;strokeColor=none;fillColor=none;" vertex="1" parent="1">
          <mxGeometry x="400" y="390" width="40" height="30" as="geometry" />
        </mxCell>
        <mxCell id="0-uP6cLEwXbnnzDf-fvT-27" value="&lt;font style=&quot;font-size: 14px;&quot; face=&quot;Times New Roman&quot;&gt;Нет&lt;/font&gt;" style="text;html=1;align=center;verticalAlign=middle;resizable=0;points=[];autosize=1;strokeColor=none;fillColor=none;" vertex="1" parent="1">
          <mxGeometry x="520" y="320" width="50" height="30" as="geometry" />
        </mxCell>
        <mxCell id="0-uP6cLEwXbnnzDf-fvT-32" value="" style="edgeStyle=orthogonalEdgeStyle;rounded=0;orthogonalLoop=1;jettySize=auto;html=1;endArrow=open;endFill=0;" edge="1" parent="1" source="0-uP6cLEwXbnnzDf-fvT-28" target="0-uP6cLEwXbnnzDf-fvT-31">
          <mxGeometry relative="1" as="geometry" />
        </mxCell>
        <mxCell id="0-uP6cLEwXbnnzDf-fvT-42" style="edgeStyle=orthogonalEdgeStyle;rounded=0;orthogonalLoop=1;jettySize=auto;html=1;endArrow=open;endFill=0;" edge="1" parent="1" source="0-uP6cLEwXbnnzDf-fvT-28">
          <mxGeometry relative="1" as="geometry">
            <mxPoint x="270" y="510" as="targetPoint" />
          </mxGeometry>
        </mxCell>
        <mxCell id="0-uP6cLEwXbnnzDf-fvT-28" value="&lt;font style=&quot;font-size: 14px;&quot; face=&quot;Times New Roman&quot;&gt;Игрок сыграл &lt;br&gt;новую карту&lt;/font&gt;" style="rhombus;whiteSpace=wrap;html=1;" vertex="1" parent="1">
          <mxGeometry x="560" y="470" width="160" height="80" as="geometry" />
        </mxCell>
        <mxCell id="0-uP6cLEwXbnnzDf-fvT-31" value="&lt;font style=&quot;font-size: 13px;&quot; face=&quot;Times New Roman&quot;&gt;Смена хода&lt;/font&gt;" style="rounded=0;whiteSpace=wrap;html=1;" vertex="1" parent="1">
          <mxGeometry x="560" y="580" width="160" height="60" as="geometry" />
        </mxCell>
        <mxCell id="0-uP6cLEwXbnnzDf-fvT-33" value="&lt;font style=&quot;font-size: 13px;&quot; face=&quot;Times New Roman&quot;&gt;Обработка&amp;nbsp;&lt;/font&gt;сыгранной&lt;font style=&quot;font-size: 13px;&quot; face=&quot;Times New Roman&quot;&gt;&lt;br&gt;&amp;nbsp;карты как крайней&lt;/font&gt;" style="rounded=0;whiteSpace=wrap;html=1;" vertex="1" parent="1">
          <mxGeometry x="560" y="680" width="160" height="60" as="geometry" />
        </mxCell>
        <mxCell id="0-uP6cLEwXbnnzDf-fvT-34" value="" style="endArrow=none;html=1;rounded=0;entryX=0.5;entryY=1;entryDx=0;entryDy=0;exitX=0.5;exitY=0;exitDx=0;exitDy=0;" edge="1" parent="1" source="0-uP6cLEwXbnnzDf-fvT-33" target="0-uP6cLEwXbnnzDf-fvT-31">
          <mxGeometry width="50" height="50" relative="1" as="geometry">
            <mxPoint x="390" y="750" as="sourcePoint" />
            <mxPoint x="440" y="700" as="targetPoint" />
          </mxGeometry>
        </mxCell>
        <mxCell id="0-uP6cLEwXbnnzDf-fvT-41" style="edgeStyle=orthogonalEdgeStyle;rounded=0;orthogonalLoop=1;jettySize=auto;html=1;endArrow=open;endFill=0;" edge="1" parent="1" source="0-uP6cLEwXbnnzDf-fvT-35">
          <mxGeometry relative="1" as="geometry">
            <mxPoint x="270" y="800" as="targetPoint" />
          </mxGeometry>
        </mxCell>
        <mxCell id="0-uP6cLEwXbnnzDf-fvT-35" value="&lt;font style=&quot;font-size: 13px;&quot; face=&quot;Times New Roman&quot;&gt;Подсчёт количества карт оставшихся у игроков&lt;/font&gt;" style="rounded=0;whiteSpace=wrap;html=1;" vertex="1" parent="1">
          <mxGeometry x="560" y="770" width="160" height="60" as="geometry" />
        </mxCell>
        <mxCell id="0-uP6cLEwXbnnzDf-fvT-36" value="" style="endArrow=none;html=1;rounded=0;entryX=0.5;entryY=1;entryDx=0;entryDy=0;exitX=0.5;exitY=0;exitDx=0;exitDy=0;" edge="1" parent="1" source="0-uP6cLEwXbnnzDf-fvT-35" target="0-uP6cLEwXbnnzDf-fvT-33">
          <mxGeometry width="50" height="50" relative="1" as="geometry">
            <mxPoint x="390" y="750" as="sourcePoint" />
            <mxPoint x="440" y="700" as="targetPoint" />
          </mxGeometry>
        </mxCell>
        <mxCell id="0-uP6cLEwXbnnzDf-fvT-39" value="" style="edgeStyle=orthogonalEdgeStyle;rounded=0;orthogonalLoop=1;jettySize=auto;html=1;entryX=0.5;entryY=0;entryDx=0;entryDy=0;endArrow=open;endFill=0;" edge="1" parent="1" source="0-uP6cLEwXbnnzDf-fvT-16" target="0-uP6cLEwXbnnzDf-fvT-38">
          <mxGeometry relative="1" as="geometry">
            <mxPoint x="360" y="240" as="sourcePoint" />
            <mxPoint x="270" y="940" as="targetPoint" />
          </mxGeometry>
        </mxCell>
        <mxCell id="0-uP6cLEwXbnnzDf-fvT-38" value="&lt;font style=&quot;font-size: 13px;&quot; face=&quot;Times New Roman&quot;&gt;Отправка новых данных каждому клиенту&lt;/font&gt;" style="rounded=0;whiteSpace=wrap;html=1;" vertex="1" parent="1">
          <mxGeometry x="190" y="830" width="160" height="60" as="geometry" />
        </mxCell>
        <mxCell id="0-uP6cLEwXbnnzDf-fvT-40" value="" style="endArrow=none;html=1;rounded=0;exitX=0.5;exitY=0;exitDx=0;exitDy=0;entryX=0.5;entryY=1;entryDx=0;entryDy=0;" edge="1" parent="1" source="0-uP6cLEwXbnnzDf-fvT-15" target="0-uP6cLEwXbnnzDf-fvT-38">
          <mxGeometry width="50" height="50" relative="1" as="geometry">
            <mxPoint x="440" y="940" as="sourcePoint" />
            <mxPoint x="490" y="890" as="targetPoint" />
          </mxGeometry>
        </mxCell>
        <mxCell id="0-uP6cLEwXbnnzDf-fvT-43" value="&lt;font style=&quot;font-size: 14px;&quot; face=&quot;Times New Roman&quot;&gt;Нет&lt;/font&gt;" style="text;html=1;align=center;verticalAlign=middle;resizable=0;points=[];autosize=1;strokeColor=none;fillColor=none;" vertex="1" parent="1">
          <mxGeometry x="520" y="490" width="50" height="30" as="geometry" />
        </mxCell>
        <mxCell id="0-uP6cLEwXbnnzDf-fvT-44" value="&lt;font style=&quot;font-size: 14px;&quot; face=&quot;Times New Roman&quot;&gt;Да&lt;/font&gt;" style="text;html=1;align=center;verticalAlign=middle;resizable=0;points=[];autosize=1;strokeColor=none;fillColor=none;" vertex="1" parent="1">
          <mxGeometry x="610" y="550" width="40" height="30" as="geometry" />
        </mxCell>
      </root>
    </mxGraphModel>
  </diagram>
</mxfile>
